<svg width="98" height="143" viewBox="0 0 98 143" fill="none" xmlns="http://www.w3.org/2000/svg">
<path d="M36.2573 79.8615C35.8642 80.1559 35.472 80.4504 35.0509 80.7026C33.115 81.8642 30.5001 82.0653 27.8744 81.2601C26.7636 80.919 26.063 80.4665 25.7925 79.9163C25.5057 79.3391 25.6653 78.4683 26.1784 77.7977C26.6671 77.1568 27.4561 76.6119 28.6553 76.085C31.7543 74.725 36.3186 73.8955 39.5142 75.1164C40.4132 75.4584 40.7017 76.3139 40.7864 76.9728C40.8541 77.4862 40.8739 77.6415 39.287 78.2044C38.6937 78.4153 38.021 78.6532 37.4214 79.0374C37.0228 79.2933 36.6405 79.5769 36.2573 79.8615ZM23.5347 64.0282C22.4689 63.8065 21.4193 63.4797 20.4158 63.0569C19.2616 62.5713 18.9406 62.1341 18.873 61.8531C18.8063 61.5649 18.9379 61.1529 19.2265 60.749C19.8017 59.9473 20.7846 59.3683 21.927 59.1628C22.3769 59.0811 22.8503 59.0541 23.3462 59.0802C24.0162 59.1161 24.724 59.248 25.4688 59.4769C26.0413 59.6529 28.291 60.6314 29.3252 61.6125L29.4379 61.7086L29.4623 61.8028C29.3784 61.8396 29.2558 61.889 29.0719 61.9554C28.9276 61.9896 28.786 62.0255 28.649 62.0721C27.8447 62.3414 27.292 62.8603 26.806 63.319C26.5481 63.5614 26.3028 63.7912 26.0738 63.9268C25.5346 64.2454 24.7231 64.275 23.5347 64.0282ZM33.1042 57.2839C33.362 56.8647 33.6046 56.4706 33.7939 56.1151C34.2159 55.3261 34.5766 54.6914 35.0734 54.282C35.3061 54.089 35.5324 54.0253 35.582 54.028C35.6081 54.0469 35.7443 54.1698 35.9156 54.8431C36.1717 55.8503 36.4467 57.3045 35.884 58.2974C35.6577 58.6924 35.2727 59.0748 34.6677 59.5048C33.8417 60.0892 33.1736 60.3405 32.5929 60.2705C32.3594 60.2382 32.1033 60.0712 31.8995 59.6412L31.9401 59.4267C32.2097 58.7328 32.7074 57.9257 33.1042 57.2839H33.1042ZM40.4276 66.3711C40.7648 65.4447 41.3635 64.9995 42.203 65.0435H42.2399C42.7133 65.0722 43.1894 65.3226 43.4797 65.6925C44.3995 66.8711 43.9874 68.2231 43.0839 69.1279C41.7539 70.4646 41.5907 70.3425 41.1985 70.057C40.2914 69.3963 39.9371 67.7069 40.4276 66.3693L40.4276 66.3711ZM50.1585 56.8979C49.7843 56.6995 49.5309 56.4796 49.4425 56.2722C49.356 56.0711 49.3632 55.7336 49.3839 55.3979C49.4579 54.2039 49.8501 51.2982 51.905 50.115C52.5389 49.7514 53.3017 49.5881 54.0817 49.6294C54.6001 49.6563 55.1231 49.7748 55.6172 49.9857C57.1744 50.6455 58.1221 52.0702 58.8452 53.3772C59.0274 53.7057 59.0535 53.8673 59.0679 53.8754C58.9372 54.0424 58.3448 54.3233 57.9471 54.5119C57.701 54.6295 57.4449 54.7506 57.1906 54.8844C56.5604 55.2129 56.0392 55.6214 55.5334 56.0182C55.1763 56.2973 54.8237 56.5801 54.4315 56.8081C53.1493 57.5613 51.474 57.5945 50.1567 56.8979H50.1585ZM43.2823 15.7751C43.0542 15.6 42.8991 15.4124 42.8314 15.2302C42.6727 14.8199 42.9595 14.1835 43.4572 13.8415C44.0099 13.4608 44.8088 13.2921 45.8935 13.3289L46.0658 13.3379C46.8529 13.3792 47.4679 13.5228 47.9412 13.7714C49.2487 14.4591 49.6373 14.9986 49.6616 15.0713C49.2838 15.5901 47.4237 16.2239 45.8286 16.3792C44.826 16.4735 43.9008 16.2571 43.2823 15.7778V15.7751ZM42.3797 6.26503C41.5601 5.52175 40.7819 4.42388 41.0624 3.56749C41.2625 2.95438 42.093 2.50554 42.9351 2.54952H42.9928C43.8711 2.62134 44.798 3.09531 45.8286 4.00197C46.4751 4.57379 46.9106 5.07919 47.1956 5.59446C47.9133 6.8943 48.2794 8.65286 47.9746 9.01643C46.5482 9.24893 44.0388 7.76147 42.3797 6.26054L42.3797 6.26503ZM53.0664 7.82789C53.2891 7.34225 53.7607 6.88622 54.1817 6.49663C54.4387 6.25875 54.7092 6.02086 54.941 5.93737C55.3738 5.79015 56.0482 6.1995 56.2682 6.76504C56.5279 7.43202 56.4035 8.35034 55.9265 9.28393C55.4576 10.2032 54.7399 11.012 53.8535 11.6197C53.1376 12.1116 52.5362 12.4159 52.2296 12.5838C52.1945 11.3324 52.7625 8.51013 53.0655 7.83059L51.905 7.29826L53.0664 7.82789ZM51.272 42.0179C50.3713 41.3859 49.6193 40.1642 49.9258 39.0574C50.1485 38.2539 50.9727 37.5573 51.9249 37.3616C52.208 37.3051 52.5037 37.2844 52.8103 37.3006C53.5334 37.3383 54.3026 37.5771 55.0194 37.9954C55.5117 38.2818 56.3503 39.1938 57.1627 40.0762C57.5405 40.4847 57.93 40.9111 58.3349 41.3276L58.2122 41.3833C57.7885 41.5583 57.2808 41.6499 56.7461 41.7459C56.2367 41.8384 55.729 41.9335 55.2385 42.0879C54.9969 42.1633 54.7606 42.2531 54.5253 42.3438C54.2602 42.4443 53.9942 42.5511 53.7165 42.6131C52.9627 42.7792 52.0448 42.5637 51.272 42.0179ZM48.485 26.7771C48.2451 26.5356 47.8826 26.1684 47.8394 25.9332C47.8015 25.7205 47.9701 25.3103 48.0251 25.1792C48.1685 24.8363 48.3912 24.356 48.6987 24.1639C48.9033 24.0346 49.2279 23.9826 49.6698 24.0059C49.7563 24.0149 49.8465 24.0176 49.9403 24.0284C51.8536 24.2357 54.3215 25.4126 54.8039 26.7726C54.8364 26.865 54.9031 27.0571 54.665 27.4072C54.1367 28.1846 52.7192 28.8462 51.9005 28.8776C50.7238 28.9575 49.5579 27.866 48.4823 26.7771L48.485 26.7771ZM59.5215 17.68C59.9083 17.557 60.5584 17.8164 61.1526 18.3568C61.8406 18.9888 62.3104 19.7464 62.4727 20.4924C62.6395 21.2527 62.4817 22.0481 62.0597 22.5642C61.782 22.9027 61.3438 23.1908 60.7937 23.3937C60.3168 23.5696 59.8957 23.6433 59.5161 23.5993C58.7587 23.5122 57.7867 23.2725 57.4693 22.6253C57.0996 21.8676 57.4693 20.4224 58.435 18.8496C58.7496 18.3433 59.1229 17.8065 59.5215 17.68ZM65.2624 35.4594C65.954 35.0932 66.9756 35.2871 67.5383 35.8885C68.1172 36.5097 68.2686 37.5555 67.9008 38.3742C67.5401 39.175 66.7385 39.8159 66.0821 40.2836C65.331 40.8159 64.5438 41.2917 63.7458 41.7746C63.2734 42.0574 62.506 41.6481 61.6801 40.9712C61.7775 40.7405 61.8667 40.5107 61.9587 40.2836C62.2995 39.4236 62.7928 38.6516 63.3193 37.8347L63.8676 36.9649C64.3373 36.2557 64.7557 35.7279 65.2624 35.4594ZM76.8562 36.4945C76.4423 36.4298 75.9798 36.0115 75.4442 35.2207C75.0411 34.6264 74.5786 33.8508 74.565 33.121C74.5524 32.6443 74.8265 32.147 75.1376 32.0788C76.0808 31.8624 78.2304 33.4998 78.5892 34.6758C78.6902 34.998 78.5324 35.4594 78.1898 35.8499C77.8066 36.2925 77.2565 36.5618 76.8562 36.4945ZM78.5946 68.1683C79.6298 68.8523 80.3836 70.4134 79.8128 71.5624C79.2222 72.7501 77.5207 73.1684 76.8165 73.2941C74.6597 73.6774 72.2739 73.3874 69.9223 72.4556C68.9557 72.0741 67.7258 71.1118 67.5861 70.4466C67.568 70.364 67.5401 70.224 67.8043 69.9583C68.0026 69.7608 68.6708 69.5435 69.1108 69.4008C69.439 69.2949 69.7519 69.1917 70.0107 69.0812L70.3046 68.9556C71.5598 68.4205 72.7464 67.9151 73.988 67.6333C75.0402 67.3954 77.0447 67.1458 78.5946 68.1683ZM66.2588 65.8675C65.6448 65.8065 64.8928 65.5677 64.6241 65.0812C64.4437 64.7571 64.4176 64.2167 64.3959 63.7364C64.3229 62.2463 64.2454 60.7068 64.68 59.345C64.7828 59.0182 64.8946 58.792 65.0217 58.6502C65.1894 58.4653 65.4861 58.3845 65.7998 58.4006C66.119 58.4177 66.4599 58.5344 66.7114 58.7444C67.5671 59.4644 67.632 60.5371 67.6402 62.2185L67.651 63.0425C67.6961 64.732 67.5906 65.6297 66.8873 65.8478C66.7475 65.8882 66.5347 65.8936 66.2588 65.8675ZM73.5326 52.7506C72.1567 52.0271 70.8898 51.2856 70.4732 50.1922C70.2118 49.5109 70.2704 48.6446 70.3254 47.8035C70.4038 46.6257 70.5084 45.5997 71.0377 44.9497C71.1793 44.7756 71.2847 44.7199 71.3208 44.7047L71.4993 44.6804C71.6193 44.6894 71.7617 44.728 71.8925 44.7971C72.1603 44.9399 72.4335 45.1948 72.7518 45.6033C74.3568 47.6545 74.8536 50.5603 73.9844 52.9508C73.8861 52.9185 73.7418 52.8583 73.5326 52.7488V52.7506ZM84.4609 38.9012C84.8243 38.9209 85.2301 39.1848 85.4528 39.5556C85.7188 40.0017 85.7981 40.6292 85.6683 41.2764C85.5006 42.1247 85.0101 42.8474 84.3582 43.2127C83.7225 43.5691 82.8569 43.6284 82.1743 43.64C81.5999 43.64 80.9264 43.3815 80.5774 42.9838C80.3583 42.7352 80.2799 42.4712 80.3295 42.1508C80.3844 41.7782 81.2302 40.7288 83.3221 39.3572C83.6016 39.1732 84.0146 38.9245 84.3708 38.9039L84.4609 38.9012ZM82.9083 53.4346C83.663 53.4741 84.4113 53.607 85.1237 53.8341V53.835C85.8658 54.0711 86.3797 54.3556 86.6935 54.7066C87.441 55.5442 87.2453 57.011 86.6664 58.0299C85.8721 59.4293 84.3816 60.4338 82.7811 60.6529C81.1725 60.8692 79.4738 60.301 78.3277 59.1672C77.9166 58.7615 77.5694 58.2866 77.2908 57.7525C76.7967 56.8 76.6254 56.0873 76.7823 55.6303C76.9383 55.1806 77.5072 54.7282 78.4756 54.2838C79.8687 53.642 81.4088 53.3556 82.9083 53.4346V53.4346ZM56.5162 81.007C56.545 80.9028 56.5739 80.7978 56.6027 80.6937C59.9236 78.1128 62.9289 75.2564 65.6015 72.1639C66.459 73.5149 68.0658 74.4584 68.9774 74.8192C70.7023 75.5024 72.4533 75.892 74.1548 75.9817C75.2161 76.0383 76.2593 75.9728 77.2674 75.7986C79.5937 75.3857 81.3096 74.2806 82.1013 72.6917C83.1896 70.5095 82.2491 67.5291 80.0067 66.0489C78.2709 64.9016 75.932 64.5856 73.4208 65.153C72.2423 65.4196 71.1414 65.8433 70.0765 66.2886C71.8203 63.6925 73.3568 60.9707 74.6759 58.1403C74.7823 58.3961 74.8797 58.6484 75.0222 58.9213C75.4207 59.6888 75.9266 60.3773 76.5244 60.9716C77.8868 62.3199 79.783 63.1287 81.7036 63.2301C82.1797 63.2553 82.6558 63.2391 83.1283 63.1736C85.5024 62.8477 87.7106 61.3576 88.8882 59.283C89.9188 57.4769 90.2299 54.8377 88.6023 53.0163C87.9757 52.3143 87.0911 51.7901 85.9027 51.4113C83.1706 50.5414 80.0734 50.7443 77.4044 51.9732C77.3043 52.019 77.1988 52.0711 77.0933 52.1231C77.8823 49.808 78.5324 47.4354 79.0446 45.0135C79.8119 45.6867 80.838 46.1221 81.8966 46.1778C82.0039 46.1867 82.1112 46.1867 82.2185 46.1867C83.2013 46.1706 84.4763 46.0701 85.6115 45.4336C86.9045 44.711 87.8621 43.3438 88.1758 41.7782C88.431 40.5026 88.2426 39.2531 87.6466 38.2548C86.9045 37.0295 85.5601 36.2826 84.222 36.3661C83.2536 36.4245 82.4421 36.8904 81.9164 37.2387C81.2014 37.7063 80.5891 38.1624 80.0581 38.6094C80.0995 38.218 80.1527 37.8302 80.187 37.437C81.0661 36.3805 81.3853 35.0797 81.0328 33.9361C80.4115 31.9046 77.1384 29.05 74.5858 29.5994C73.0755 29.9324 71.9691 31.4737 72.0079 33.182C72.0385 34.5716 72.7274 35.7638 73.3252 36.6471C73.9339 37.5448 74.9212 38.7674 76.4523 39.0098C76.5659 39.0286 76.6804 39.0412 76.7949 39.0475C77.0104 39.0583 77.2277 39.0268 77.4441 38.9981C77.152 41.5018 76.7228 43.9641 76.1322 46.3681C75.7823 45.5449 75.3279 44.7612 74.7688 44.0467C74.4253 43.6059 73.8771 42.9722 73.0917 42.5565C72.1927 42.0799 71.1919 42.0098 70.3335 42.3626C69.8538 42.5628 69.421 42.8985 69.0513 43.3555C67.9684 44.684 67.8575 46.3941 67.7763 47.6419C67.7096 48.6491 67.6284 49.8996 68.0838 51.0989C68.8773 53.1806 70.9601 54.2776 72.3406 55.0047C72.5029 55.09 72.786 55.2318 73.1296 55.3503C72.2604 57.3844 71.2712 59.362 70.1775 61.2804C70.1252 59.7579 69.8628 58.0712 68.3588 56.8063C66.7899 55.4876 64.3932 55.5478 63.1237 56.9527C62.7387 57.3773 62.4591 57.8988 62.2445 58.5846C61.672 60.3773 61.763 62.231 61.846 63.863C61.8767 64.5426 61.9199 65.4726 62.387 66.3155C62.9569 67.346 64.0605 68.0588 65.4572 68.3227C63.1868 71.2213 60.6242 73.9242 57.7903 76.4045C59.3429 70.6989 60.7766 64.8585 61.4943 58.9311C62.094 53.9688 62.1724 48.9794 61.7802 44.0368C62.8631 44.5269 63.9776 44.6131 65.0875 43.9443C65.9261 43.4372 66.7655 42.9273 67.5653 42.3572C68.4877 41.7028 69.6239 40.7755 70.2334 39.4173C71.0278 37.6534 70.695 35.5411 69.4093 34.1623C68.0432 32.7 65.7908 32.3032 64.0623 33.2197C63.0209 33.7709 62.3257 34.6776 61.7306 35.5744L61.7062 35.6139L61.1661 36.4693C61.0706 36.6175 60.975 36.7674 60.8794 36.9182C60.2203 33.182 59.2717 29.4997 58.059 25.9009C58.4115 25.9979 58.7893 26.0805 59.2239 26.1298C59.3132 26.1406 59.4052 26.1487 59.4944 26.1532C60.1896 26.1891 60.929 26.0643 61.6882 25.7815C62.6746 25.4144 63.4663 24.8749 64.0407 24.1747C64.955 23.0535 65.3039 21.4763 64.9703 19.9556C64.6908 18.6854 63.9703 17.487 62.8811 16.4896C61.5737 15.2912 60.0652 14.846 58.746 15.2598C57.5495 15.6404 56.8173 16.618 56.2565 17.5238C55.9157 18.0776 55.6407 18.6189 55.4161 19.1468C54.7624 17.688 54.0654 16.2473 53.3179 14.8298C53.8725 14.6009 54.5244 14.2526 55.3052 13.7158C56.5405 12.8675 57.5423 11.7346 58.2041 10.4384C59.0219 8.83599 59.1806 7.2058 58.6514 5.84761C58.0031 4.17702 56.0149 2.85115 54.0744 3.54775C53.391 3.79282 52.8752 4.23537 52.4442 4.63125C51.8428 5.18781 51.1647 5.85838 50.7437 6.76953C50.731 6.80274 50.6499 7.04602 50.539 7.42035C50.2432 5.86108 49.4849 4.46697 49.4344 4.37541C49.0043 3.59622 48.3957 2.87449 47.5193 2.10248C46.0613 0.818794 44.6483 0.138351 43.2002 0.0198571C41.102 -0.169554 39.2067 1.01449 38.6305 2.78472C38.0661 4.51455 38.8064 6.4697 40.6602 8.14747C40.9424 8.40241 42.6475 9.90154 44.6934 10.8342C43.6348 10.9438 42.7449 11.2427 42.0055 11.7499C40.5159 12.775 39.8604 14.6216 40.442 16.1377C40.6809 16.7607 41.1056 17.3146 41.7107 17.7832C42.6006 18.4735 43.734 18.8694 44.9801 18.9349C45.339 18.9538 45.7042 18.9448 46.0757 18.9098C46.2398 18.8936 49.924 18.5157 51.492 16.8442C52.4821 18.7814 53.3793 20.7608 54.189 22.7734C52.8301 22.0364 51.318 21.6208 50.2198 21.5023C49.0251 21.3676 48.0846 21.5409 47.3317 22.0158C46.4138 22.5948 45.9386 23.5436 45.6627 24.2097C45.4247 24.7824 45.1749 25.5464 45.3246 26.3866C45.5103 27.3974 46.2055 28.0994 46.6654 28.5644C47.9854 29.8992 49.5516 31.3113 51.575 31.4181C51.7148 31.4271 51.8545 31.4271 51.9997 31.4181C53.3784 31.3651 55.3079 30.5509 56.445 29.252C57.2664 32.0195 57.9264 34.8311 58.4151 37.6749C57.6514 36.8598 56.9607 36.1767 56.3115 35.7979C54.7291 34.8769 52.9942 34.5483 51.4109 34.8679C49.4957 35.2611 47.9485 36.6372 47.4634 38.3778C46.9061 40.3877 47.8673 42.7388 49.7969 44.0934C50.7554 44.7684 51.8392 45.149 52.9059 45.2056C53.372 45.2307 53.8337 45.1939 54.2809 45.0916C54.6813 45.0018 55.0609 44.8618 55.4405 44.7164C55.6271 44.6436 55.8129 44.5718 56.0067 44.5126C56.3954 44.3896 56.7984 44.3205 57.2024 44.2478C57.8453 44.1311 58.5089 44.0108 59.1861 43.7325H59.196C59.3691 45.7397 59.4611 47.7541 59.4674 49.7739C58.7316 48.9265 57.8128 48.1536 56.6217 47.6482C54.6227 46.8008 52.3856 46.904 50.6273 47.9157C48.4236 49.1832 47.0414 51.8556 46.8331 55.2435C46.7916 55.8916 46.7943 56.5873 47.0928 57.2722C47.412 58.029 48.0404 58.6592 48.9565 59.1457C49.8411 59.6143 50.8266 59.8737 51.8257 59.9267C53.1818 59.9985 54.5596 59.6897 55.7281 59.0039C56.2177 58.7175 56.6695 58.3692 57.1149 58.0191C57.5216 57.7013 57.921 57.3782 58.3763 57.1412C58.6045 57.0227 58.8335 56.9141 59.0508 56.8099L59.1401 56.7668C59.0815 57.3871 59.0319 58.0074 58.957 58.6259C58.0707 65.9663 56.0293 73.268 54.0555 80.3274C53.1295 83.6372 52.2035 86.9478 51.3866 90.2773C51.2973 90.6391 51.208 91.0179 51.1179 91.394C49.6977 85.5205 47.0711 79.9845 43.3688 75.1343C42.7205 74.2851 42.0497 73.5176 41.3743 72.7824L41.4402 72.7913C42.9577 72.8712 44.1822 71.6441 44.9846 70.838C46.8827 68.9367 47.0919 66.1817 45.4977 64.1359C44.7574 63.1924 43.6015 62.5838 42.4031 62.5093C40.2815 62.4168 38.7595 63.4985 38.0255 65.5031C37.627 66.5955 37.5422 67.951 37.8479 69.215C35.7885 67.1943 33.9599 65.2921 32.7462 62.8037C33.8291 62.819 34.9418 62.4348 36.1509 61.5793C36.7298 61.1682 37.562 60.512 38.1085 59.5523C39.121 57.7641 38.7559 55.6537 38.3925 54.2228C38.2455 53.6474 37.9056 52.3018 36.6613 51.7254C35.6866 51.2748 34.4504 51.4992 33.4441 52.3242C32.5163 53.0872 31.9744 54.107 31.5388 54.9248C31.372 55.2372 31.1565 55.5855 30.9266 55.9553C30.4154 56.7848 29.8599 57.6842 29.5182 58.6107C28.199 57.8045 26.7491 57.2121 26.2235 57.0496C24.5364 56.5289 22.9369 56.3979 21.4716 56.6627C19.68 56.9859 18.1021 57.9383 17.1463 59.2749C16.415 60.2965 16.1454 61.4213 16.388 62.4411C16.8307 64.3118 18.7801 65.1323 19.4212 65.4025C20.5772 65.8891 21.7836 66.2652 23.0117 66.5201C23.449 66.6117 23.9666 66.6997 24.5202 66.7293C25.439 66.7778 26.4597 66.6611 27.3812 66.1144C27.8537 65.8343 28.2297 65.4815 28.5606 65.1709C28.8843 64.8657 29.1927 64.5776 29.6796 64.4276C29.905 64.3738 30.1286 64.3118 30.3333 64.2221L30.5443 64.1099C32.06 67.118 34.2989 69.3146 36.6387 71.5992C36.7839 71.7411 36.9309 71.8874 37.0769 72.0301C33.6893 71.7707 30.0953 72.6764 27.6256 73.7599V73.7606C26.6094 74.2059 25.1478 74.951 24.146 76.258C23.0342 77.7122 22.7818 79.5893 23.4986 81.0417C24.1009 82.2608 25.2866 83.1297 27.1206 83.6935C28.2026 84.0247 29.2892 84.2177 30.3504 84.2743C32.5505 84.391 34.6442 83.9188 36.3691 82.8847C36.8641 82.5884 37.3276 82.2446 37.7902 81.8999C38.1238 81.6521 38.4565 81.4017 38.8037 81.1791C39.1553 80.9538 39.6341 80.7832 40.1435 80.6046C40.9974 80.3011 42.2138 79.8568 42.8783 78.855C46.6005 84.4736 48.971 91.0904 49.6075 97.7629C49.6211 97.9056 49.6643 98.0367 49.7202 98.1605C48.42 105.715 47.8448 114.717 50.3244 123.254C50.4804 123.788 50.9565 124.143 51.4848 124.171C51.6246 124.18 51.7671 124.162 51.9068 124.122C52.5849 123.927 52.9744 123.223 52.7805 122.548C50.2685 113.909 50.6039 104.143 53.868 90.8821C54.6813 87.5769 55.5983 84.2931 56.5162 81.0094" fill="#C2C2C2"/>
<path opacity="0.384" d="M49 143C76.062 143 98 136.997 98 129.592C98 122.187 76.062 116.184 49 116.184C21.938 116.184 0 122.187 0 129.592C0 136.997 21.938 143 49 143Z" fill="#6A7678"/>
</svg>
