<svg
          width="270"
          height="47"
          viewBox="0 0 270 47"
          fill="none"
          xmlns="http://www.w3.org/2000/svg"
        >
          <path
            d="M1.472 18C1.296 18 1.152 17.952 1.04 17.856C0.928 17.744 0.872 17.6 0.872 17.424V1.8C0.872 1.624 0.928 1.48 1.04 1.368C1.152 1.256 1.296 1.2 1.472 1.2H3.368C3.704 1.2 3.944 1.352 4.088 1.656L8.72 10.296L13.4 1.656C13.56 1.352 13.8 1.2 14.12 1.2H15.992C16.168 1.2 16.312 1.256 16.424 1.368C16.536 1.48 16.592 1.624 16.592 1.8V17.424C16.592 17.6 16.536 17.744 16.424 17.856C16.312 17.952 16.168 18 15.992 18H13.976C13.816 18 13.68 17.944 13.568 17.832C13.456 17.72 13.4 17.584 13.4 17.424V7.032L10.04 13.44C9.832 13.792 9.56 13.968 9.224 13.968H8.24C7.904 13.968 7.632 13.792 7.424 13.44L4.064 7.032V17.424C4.064 17.584 4.008 17.72 3.896 17.832C3.8 17.944 3.664 18 3.488 18H1.472ZM23.6611 18.24C22.8451 18.24 22.0931 18.08 21.4051 17.76C20.7331 17.424 20.1971 16.976 19.7971 16.416C19.4131 15.856 19.2211 15.24 19.2211 14.568C19.2211 13.48 19.6611 12.6 20.5411 11.928C21.4211 11.256 22.6291 10.8 24.1651 10.56L27.4531 10.08V9.576C27.4531 8.872 27.2771 8.344 26.9251 7.992C26.5731 7.64 26.0051 7.464 25.2211 7.464C24.6931 7.464 24.2611 7.568 23.9251 7.776C23.6051 7.968 23.3491 8.16 23.1571 8.352C22.9651 8.56 22.8371 8.696 22.7731 8.76C22.7091 8.952 22.5891 9.048 22.4131 9.048H20.5651C20.4211 9.048 20.2931 9 20.1811 8.904C20.0851 8.808 20.0371 8.68 20.0371 8.52C20.0531 8.12 20.2451 7.664 20.6131 7.152C20.9971 6.64 21.5811 6.2 22.3651 5.832C23.1491 5.464 24.1091 5.28 25.2451 5.28C27.1331 5.28 28.5091 5.704 29.3731 6.552C30.2371 7.4 30.6691 8.512 30.6691 9.888V17.424C30.6691 17.584 30.6131 17.72 30.5011 17.832C30.4051 17.944 30.2691 18 30.0931 18H28.1491C27.9891 18 27.8531 17.944 27.7411 17.832C27.6291 17.72 27.5731 17.584 27.5731 17.424V16.488C27.2211 17 26.7171 17.424 26.0611 17.76C25.4211 18.08 24.6211 18.24 23.6611 18.24ZM24.4771 15.96C25.3571 15.96 26.0771 15.672 26.6371 15.096C27.1971 14.52 27.4771 13.68 27.4771 12.576V12.072L25.0771 12.456C24.1491 12.6 23.4451 12.832 22.9651 13.152C22.5011 13.472 22.2691 13.864 22.2691 14.328C22.2691 14.84 22.4851 15.24 22.9171 15.528C23.3491 15.816 23.8691 15.96 24.4771 15.96ZM33.2201 18C33.0761 18 32.9481 17.952 32.8361 17.856C32.7401 17.744 32.6921 17.616 32.6921 17.472C32.6921 17.328 32.7481 17.192 32.8601 17.064L36.9401 11.592L33.1481 6.456C33.0521 6.328 33.0041 6.192 33.0041 6.048C33.0041 5.904 33.0521 5.784 33.1481 5.688C33.2601 5.576 33.3881 5.52 33.5321 5.52H35.6201C35.7801 5.52 35.9001 5.56 35.9801 5.64C36.0761 5.704 36.1721 5.8 36.2681 5.928L38.9801 9.528L41.6921 5.928C41.7081 5.912 41.7721 5.84 41.8841 5.712C41.9801 5.584 42.1321 5.52 42.3401 5.52H44.3321C44.4761 5.52 44.5961 5.576 44.6921 5.688C44.8041 5.784 44.8601 5.896 44.8601 6.024C44.8601 6.184 44.8121 6.328 44.7161 6.456L40.8761 11.64L44.9801 17.064C45.0921 17.192 45.1481 17.328 45.1481 17.472C45.1481 17.616 45.0921 17.744 44.9801 17.856C44.8841 17.952 44.7641 18 44.6201 18H42.4361C42.1801 18 41.9641 17.872 41.7881 17.616L38.9081 13.8L35.9801 17.616C35.8041 17.872 35.5881 18 35.3321 18H33.2201ZM55.5461 18C55.3061 18 55.1141 17.936 54.9701 17.808C54.8261 17.68 54.7381 17.504 54.7061 17.28L51.8501 1.896L51.8261 1.704C51.8261 1.56 51.8741 1.44 51.9701 1.344C52.0821 1.248 52.2021 1.2 52.3301 1.2H54.4421C54.8421 1.2 55.0661 1.36 55.1141 1.68L57.1061 12.552L59.2661 5.52C59.4261 5.12 59.6901 4.92 60.0581 4.92H61.3541C61.7541 4.92 62.0101 5.12 62.1221 5.52L64.3061 12.528L66.2981 1.68C66.3301 1.504 66.3941 1.384 66.4901 1.32C66.6021 1.24 66.7621 1.2 66.9701 1.2H69.0821C69.2101 1.2 69.3221 1.248 69.4181 1.344C69.5141 1.44 69.5621 1.56 69.5621 1.704C69.5621 1.784 69.5541 1.848 69.5381 1.896L66.6821 17.28C66.6021 17.76 66.3221 18 65.8421 18H64.2341C64.0101 18 63.8261 17.944 63.6821 17.832C63.5381 17.72 63.4421 17.576 63.3941 17.4L60.7061 9.384L58.0181 17.4C57.8581 17.8 57.5701 18 57.1541 18H55.5461ZM77.1431 18.24C75.2711 18.24 73.8231 17.76 72.7991 16.8C71.7751 15.824 71.2231 14.496 71.1431 12.816L71.1191 11.76L71.1431 10.704C71.2231 9.04 71.7831 7.72 72.8231 6.744C73.8631 5.768 75.3031 5.28 77.1431 5.28C78.9831 5.28 80.4231 5.768 81.4631 6.744C82.5031 7.72 83.0631 9.04 83.1431 10.704C83.1591 10.896 83.1671 11.248 83.1671 11.76C83.1671 12.272 83.1591 12.624 83.1431 12.816C83.0631 14.496 82.5111 15.824 81.4871 16.8C80.4631 17.76 79.0151 18.24 77.1431 18.24ZM77.1431 15.864C77.9911 15.864 78.6471 15.6 79.1111 15.072C79.5751 14.528 79.8311 13.736 79.8791 12.696C79.8951 12.536 79.9031 12.224 79.9031 11.76C79.9031 11.296 79.8951 10.984 79.8791 10.824C79.8311 9.784 79.5751 9 79.1111 8.472C78.6471 7.928 77.9911 7.656 77.1431 7.656C76.2951 7.656 75.6391 7.928 75.1751 8.472C74.7111 9 74.4551 9.784 74.4071 10.824L74.3831 11.76L74.4071 12.696C74.4551 13.736 74.7111 14.528 75.1751 15.072C75.6391 15.6 76.2951 15.864 77.1431 15.864ZM86.4022 18C86.2422 18 86.1062 17.944 85.9942 17.832C85.8822 17.72 85.8262 17.584 85.8262 17.424V6.12C85.8262 5.96 85.8822 5.824 85.9942 5.712C86.1062 5.584 86.2422 5.52 86.4022 5.52H88.3462C88.5222 5.52 88.6662 5.576 88.7782 5.688C88.8902 5.8 88.9462 5.944 88.9462 6.12V7.104C89.3302 6.592 89.8102 6.2 90.3862 5.928C90.9782 5.656 91.6502 5.52 92.4022 5.52H93.3862C93.5622 5.52 93.6982 5.576 93.7942 5.688C93.9062 5.784 93.9622 5.92 93.9622 6.096V7.824C93.9622 7.984 93.9062 8.12 93.7942 8.232C93.6982 8.344 93.5622 8.4 93.3862 8.4H91.5142C90.7622 8.4 90.1702 8.616 89.7382 9.048C89.3062 9.48 89.0902 10.072 89.0902 10.824V17.424C89.0902 17.584 89.0342 17.72 88.9222 17.832C88.8102 17.944 88.6662 18 88.4902 18H86.4022ZM96.434 18C96.274 18 96.138 17.944 96.026 17.832C95.914 17.72 95.858 17.584 95.858 17.424V1.536C95.858 1.36 95.914 1.224 96.026 1.128C96.138 1.016 96.274 0.959999 96.434 0.959999H98.426C98.602 0.959999 98.738 1.016 98.834 1.128C98.946 1.224 99.002 1.36 99.002 1.536V17.424C99.002 17.584 98.946 17.72 98.834 17.832C98.738 17.944 98.602 18 98.426 18H96.434ZM106.818 18.24C105.202 18.24 103.962 17.72 103.098 16.68C102.234 15.64 101.77 14.256 101.706 12.528L101.682 11.736L101.706 10.968C101.754 9.288 102.21 7.92 103.074 6.864C103.954 5.808 105.202 5.28 106.818 5.28C108.37 5.28 109.602 5.808 110.514 6.864V1.536C110.514 1.36 110.57 1.224 110.682 1.128C110.794 1.016 110.93 0.959999 111.09 0.959999H113.13C113.306 0.959999 113.442 1.016 113.538 1.128C113.65 1.224 113.706 1.36 113.706 1.536V17.424C113.706 17.584 113.65 17.72 113.538 17.832C113.442 17.944 113.306 18 113.13 18H111.234C111.074 18 110.938 17.944 110.826 17.832C110.714 17.72 110.658 17.584 110.658 17.424V16.536C109.746 17.672 108.466 18.24 106.818 18.24ZM107.706 15.672C108.634 15.672 109.322 15.376 109.77 14.784C110.218 14.192 110.466 13.464 110.514 12.6C110.53 12.408 110.538 12.096 110.538 11.664C110.538 11.248 110.53 10.944 110.514 10.752C110.482 9.952 110.226 9.272 109.746 8.712C109.282 8.136 108.602 7.848 107.706 7.848C105.978 7.848 105.058 8.912 104.946 11.04L104.922 11.76L104.946 12.48C105.058 14.608 105.978 15.672 107.706 15.672ZM123.253 18C123.093 18 122.957 17.944 122.845 17.832C122.733 17.72 122.677 17.584 122.677 17.424V1.776C122.677 1.6 122.733 1.464 122.845 1.368C122.957 1.256 123.093 1.2 123.253 1.2H125.509C125.685 1.2 125.821 1.256 125.917 1.368C126.029 1.464 126.085 1.6 126.085 1.776V17.424C126.085 17.584 126.029 17.72 125.917 17.832C125.821 17.944 125.685 18 125.509 18H123.253ZM130.137 18C129.977 18 129.841 17.944 129.729 17.832C129.617 17.72 129.561 17.584 129.561 17.424V6.096C129.561 5.936 129.617 5.8 129.729 5.688C129.841 5.576 129.977 5.52 130.137 5.52H132.105C132.265 5.52 132.401 5.576 132.513 5.688C132.625 5.8 132.681 5.936 132.681 6.096V7.08C133.625 5.88 134.961 5.28 136.689 5.28C138.161 5.28 139.329 5.768 140.193 6.744C141.057 7.704 141.489 9.016 141.489 10.68V17.424C141.489 17.584 141.433 17.72 141.321 17.832C141.225 17.944 141.089 18 140.913 18H138.801C138.641 18 138.505 17.944 138.393 17.832C138.281 17.72 138.225 17.584 138.225 17.424V10.824C138.225 9.88 137.993 9.152 137.529 8.64C137.081 8.112 136.425 7.848 135.561 7.848C134.713 7.848 134.041 8.112 133.545 8.64C133.065 9.168 132.825 9.896 132.825 10.824V17.424C132.825 17.584 132.769 17.72 132.657 17.832C132.561 17.944 132.425 18 132.249 18H130.137ZM150.037 18C148.581 18 147.485 17.624 146.749 16.872C146.029 16.104 145.669 14.984 145.669 13.512V8.064H143.773C143.613 8.064 143.477 8.008 143.365 7.896C143.253 7.768 143.197 7.624 143.197 7.464V6.096C143.197 5.936 143.253 5.8 143.365 5.688C143.477 5.576 143.613 5.52 143.773 5.52H145.669V1.536C145.669 1.36 145.725 1.224 145.837 1.128C145.949 1.016 146.085 0.959999 146.245 0.959999H148.189C148.365 0.959999 148.501 1.016 148.597 1.128C148.709 1.224 148.765 1.36 148.765 1.536V5.52H151.765C151.941 5.52 152.077 5.576 152.173 5.688C152.285 5.784 152.341 5.92 152.341 6.096V7.464C152.341 7.64 152.285 7.784 152.173 7.896C152.061 8.008 151.925 8.064 151.765 8.064H148.765V13.272C148.765 13.96 148.885 14.48 149.125 14.832C149.365 15.184 149.765 15.36 150.325 15.36H151.981C152.141 15.36 152.277 15.416 152.389 15.528C152.501 15.64 152.557 15.776 152.557 15.936V17.424C152.557 17.584 152.501 17.72 152.389 17.832C152.293 17.944 152.157 18 151.981 18H150.037ZM160.062 18.24C158.286 18.24 156.87 17.728 155.814 16.704C154.774 15.664 154.222 14.208 154.158 12.336L154.134 11.736L154.158 11.136C154.238 9.312 154.798 7.88 155.838 6.84C156.894 5.8 158.302 5.28 160.062 5.28C161.95 5.28 163.406 5.856 164.43 7.008C165.47 8.16 165.99 9.696 165.99 11.616V12.12C165.99 12.28 165.934 12.416 165.822 12.528C165.71 12.64 165.566 12.696 165.39 12.696H157.422V12.888C157.454 13.768 157.694 14.512 158.142 15.12C158.606 15.712 159.238 16.008 160.038 16.008C160.982 16.008 161.742 15.64 162.318 14.904C162.462 14.728 162.574 14.616 162.654 14.568C162.75 14.52 162.886 14.496 163.062 14.496H165.126C165.27 14.496 165.39 14.544 165.486 14.64C165.598 14.72 165.654 14.824 165.654 14.952C165.654 15.336 165.422 15.792 164.958 16.32C164.51 16.832 163.862 17.28 163.014 17.664C162.166 18.048 161.182 18.24 160.062 18.24ZM162.726 10.68V10.608C162.726 9.664 162.486 8.904 162.006 8.328C161.542 7.752 160.894 7.464 160.062 7.464C159.23 7.464 158.582 7.752 158.118 8.328C157.654 8.904 157.422 9.664 157.422 10.608V10.68H162.726ZM169.113 18C168.953 18 168.817 17.944 168.705 17.832C168.593 17.72 168.537 17.584 168.537 17.424V6.12C168.537 5.96 168.593 5.824 168.705 5.712C168.817 5.584 168.953 5.52 169.113 5.52H171.057C171.233 5.52 171.377 5.576 171.489 5.688C171.601 5.8 171.657 5.944 171.657 6.12V7.104C172.041 6.592 172.521 6.2 173.097 5.928C173.689 5.656 174.361 5.52 175.113 5.52H176.097C176.273 5.52 176.409 5.576 176.505 5.688C176.617 5.784 176.673 5.92 176.673 6.096V7.824C176.673 7.984 176.617 8.12 176.505 8.232C176.409 8.344 176.273 8.4 176.097 8.4H174.225C173.473 8.4 172.881 8.616 172.449 9.048C172.017 9.48 171.801 10.072 171.801 10.824V17.424C171.801 17.584 171.745 17.72 171.633 17.832C171.521 17.944 171.377 18 171.201 18H169.113ZM179.121 18C178.961 18 178.825 17.944 178.713 17.832C178.601 17.72 178.545 17.584 178.545 17.424V6.096C178.545 5.936 178.601 5.8 178.713 5.688C178.825 5.576 178.961 5.52 179.121 5.52H181.089C181.249 5.52 181.385 5.576 181.497 5.688C181.609 5.8 181.665 5.936 181.665 6.096V7.08C182.609 5.88 183.945 5.28 185.673 5.28C187.145 5.28 188.313 5.768 189.177 6.744C190.041 7.704 190.473 9.016 190.473 10.68V17.424C190.473 17.584 190.417 17.72 190.305 17.832C190.209 17.944 190.073 18 189.897 18H187.785C187.625 18 187.489 17.944 187.377 17.832C187.265 17.72 187.209 17.584 187.209 17.424V10.824C187.209 9.88 186.977 9.152 186.513 8.64C186.065 8.112 185.409 7.848 184.545 7.848C183.697 7.848 183.025 8.112 182.529 8.64C182.049 9.168 181.809 9.896 181.809 10.824V17.424C181.809 17.584 181.753 17.72 181.641 17.832C181.545 17.944 181.409 18 181.233 18H179.121ZM197.146 18.24C196.33 18.24 195.578 18.08 194.89 17.76C194.218 17.424 193.682 16.976 193.282 16.416C192.898 15.856 192.706 15.24 192.706 14.568C192.706 13.48 193.146 12.6 194.026 11.928C194.906 11.256 196.114 10.8 197.65 10.56L200.938 10.08V9.576C200.938 8.872 200.762 8.344 200.41 7.992C200.058 7.64 199.49 7.464 198.706 7.464C198.178 7.464 197.746 7.568 197.41 7.776C197.09 7.968 196.834 8.16 196.642 8.352C196.45 8.56 196.322 8.696 196.258 8.76C196.194 8.952 196.074 9.048 195.898 9.048H194.05C193.906 9.048 193.778 9 193.666 8.904C193.57 8.808 193.521 8.68 193.521 8.52C193.538 8.12 193.73 7.664 194.098 7.152C194.482 6.64 195.066 6.2 195.85 5.832C196.634 5.464 197.594 5.28 198.73 5.28C200.618 5.28 201.994 5.704 202.858 6.552C203.722 7.4 204.154 8.512 204.154 9.888V17.424C204.154 17.584 204.098 17.72 203.986 17.832C203.89 17.944 203.754 18 203.578 18H201.634C201.474 18 201.338 17.944 201.226 17.832C201.114 17.72 201.058 17.584 201.058 17.424V16.488C200.706 17 200.202 17.424 199.546 17.76C198.906 18.08 198.106 18.24 197.146 18.24ZM197.962 15.96C198.842 15.96 199.562 15.672 200.122 15.096C200.682 14.52 200.962 13.68 200.962 12.576V12.072L198.562 12.456C197.634 12.6 196.93 12.832 196.45 13.152C195.986 13.472 195.754 13.864 195.754 14.328C195.754 14.84 195.97 15.24 196.402 15.528C196.834 15.816 197.354 15.96 197.962 15.96ZM212.755 18C211.299 18 210.203 17.624 209.467 16.872C208.747 16.104 208.387 14.984 208.387 13.512V8.064H206.491C206.331 8.064 206.195 8.008 206.083 7.896C205.971 7.768 205.915 7.624 205.915 7.464V6.096C205.915 5.936 205.971 5.8 206.083 5.688C206.195 5.576 206.331 5.52 206.491 5.52H208.387V1.536C208.387 1.36 208.443 1.224 208.555 1.128C208.667 1.016 208.803 0.959999 208.963 0.959999H210.907C211.083 0.959999 211.219 1.016 211.315 1.128C211.427 1.224 211.483 1.36 211.483 1.536V5.52H214.483C214.659 5.52 214.795 5.576 214.891 5.688C215.003 5.784 215.059 5.92 215.059 6.096V7.464C215.059 7.64 215.003 7.784 214.891 7.896C214.779 8.008 214.643 8.064 214.483 8.064H211.483V13.272C211.483 13.96 211.603 14.48 211.843 14.832C212.083 15.184 212.483 15.36 213.043 15.36H214.699C214.859 15.36 214.995 15.416 215.107 15.528C215.219 15.64 215.275 15.776 215.275 15.936V17.424C215.275 17.584 215.219 17.72 215.107 17.832C215.011 17.944 214.875 18 214.699 18H212.755ZM217.884 3.456C217.724 3.456 217.588 3.4 217.476 3.288C217.364 3.176 217.308 3.04 217.308 2.88V1.152C217.308 0.992 217.364 0.855999 217.476 0.743999C217.588 0.631999 217.724 0.576 217.884 0.576H220.068C220.228 0.576 220.364 0.631999 220.476 0.743999C220.604 0.855999 220.668 0.992 220.668 1.152V2.88C220.668 3.04 220.612 3.176 220.5 3.288C220.388 3.4 220.244 3.456 220.068 3.456H217.884ZM217.98 18C217.82 18 217.684 17.944 217.572 17.832C217.46 17.72 217.404 17.584 217.404 17.424V6.096C217.404 5.936 217.46 5.8 217.572 5.688C217.684 5.576 217.82 5.52 217.98 5.52H219.972C220.148 5.52 220.284 5.576 220.38 5.688C220.492 5.784 220.548 5.92 220.548 6.096V17.424C220.548 17.584 220.492 17.72 220.38 17.832C220.284 17.944 220.148 18 219.972 18H217.98ZM229.252 18.24C227.38 18.24 225.932 17.76 224.908 16.8C223.884 15.824 223.332 14.496 223.252 12.816L223.228 11.76L223.252 10.704C223.332 9.04 223.892 7.72 224.932 6.744C225.972 5.768 227.412 5.28 229.252 5.28C231.092 5.28 232.532 5.768 233.572 6.744C234.612 7.72 235.172 9.04 235.252 10.704C235.268 10.896 235.276 11.248 235.276 11.76C235.276 12.272 235.268 12.624 235.252 12.816C235.172 14.496 234.62 15.824 233.596 16.8C232.572 17.76 231.124 18.24 229.252 18.24ZM229.252 15.864C230.1 15.864 230.756 15.6 231.22 15.072C231.684 14.528 231.94 13.736 231.988 12.696C232.004 12.536 232.012 12.224 232.012 11.76C232.012 11.296 232.004 10.984 231.988 10.824C231.94 9.784 231.684 9 231.22 8.472C230.756 7.928 230.1 7.656 229.252 7.656C228.404 7.656 227.748 7.928 227.284 8.472C226.82 9 226.564 9.784 226.516 10.824L226.492 11.76L226.516 12.696C226.564 13.736 226.82 14.528 227.284 15.072C227.748 15.6 228.404 15.864 229.252 15.864ZM238.512 18C238.352 18 238.216 17.944 238.104 17.832C237.992 17.72 237.936 17.584 237.936 17.424V6.096C237.936 5.936 237.992 5.8 238.104 5.688C238.216 5.576 238.352 5.52 238.512 5.52H240.48C240.64 5.52 240.776 5.576 240.888 5.688C241 5.8 241.056 5.936 241.056 6.096V7.08C242 5.88 243.336 5.28 245.064 5.28C246.536 5.28 247.704 5.768 248.568 6.744C249.432 7.704 249.864 9.016 249.864 10.68V17.424C249.864 17.584 249.808 17.72 249.696 17.832C249.6 17.944 249.464 18 249.288 18H247.176C247.016 18 246.88 17.944 246.768 17.832C246.656 17.72 246.6 17.584 246.6 17.424V10.824C246.6 9.88 246.368 9.152 245.904 8.64C245.456 8.112 244.8 7.848 243.936 7.848C243.088 7.848 242.416 8.112 241.92 8.64C241.44 9.168 241.2 9.896 241.2 10.824V17.424C241.2 17.584 241.144 17.72 241.032 17.832C240.936 17.944 240.8 18 240.624 18H238.512ZM256.536 18.24C255.72 18.24 254.968 18.08 254.28 17.76C253.608 17.424 253.072 16.976 252.672 16.416C252.288 15.856 252.096 15.24 252.096 14.568C252.096 13.48 252.536 12.6 253.416 11.928C254.296 11.256 255.504 10.8 257.04 10.56L260.328 10.08V9.576C260.328 8.872 260.152 8.344 259.8 7.992C259.448 7.64 258.88 7.464 258.096 7.464C257.568 7.464 257.136 7.568 256.8 7.776C256.48 7.968 256.224 8.16 256.032 8.352C255.84 8.56 255.712 8.696 255.648 8.76C255.584 8.952 255.464 9.048 255.288 9.048H253.44C253.296 9.048 253.168 9 253.056 8.904C252.96 8.808 252.912 8.68 252.912 8.52C252.928 8.12 253.12 7.664 253.488 7.152C253.872 6.64 254.456 6.2 255.24 5.832C256.024 5.464 256.984 5.28 258.12 5.28C260.008 5.28 261.384 5.704 262.248 6.552C263.112 7.4 263.544 8.512 263.544 9.888V17.424C263.544 17.584 263.488 17.72 263.376 17.832C263.28 17.944 263.144 18 262.968 18H261.024C260.864 18 260.728 17.944 260.616 17.832C260.504 17.72 260.448 17.584 260.448 17.424V16.488C260.096 17 259.592 17.424 258.936 17.76C258.296 18.08 257.496 18.24 256.536 18.24ZM257.352 15.96C258.232 15.96 258.952 15.672 259.512 15.096C260.072 14.52 260.352 13.68 260.352 12.576V12.072L257.952 12.456C257.024 12.6 256.32 12.832 255.84 13.152C255.376 13.472 255.144 13.864 255.144 14.328C255.144 14.84 255.36 15.24 255.792 15.528C256.224 15.816 256.744 15.96 257.352 15.96ZM267.223 18C267.063 18 266.927 17.944 266.815 17.832C266.703 17.72 266.647 17.584 266.647 17.424V1.536C266.647 1.36 266.703 1.224 266.815 1.128C266.927 1.016 267.063 0.959999 267.223 0.959999H269.215C269.391 0.959999 269.527 1.016 269.623 1.128C269.735 1.224 269.791 1.36 269.791 1.536V17.424C269.791 17.584 269.735 17.72 269.623 17.832C269.527 17.944 269.391 18 269.215 18H267.223Z"
            fill="#505050"
          />
          <path
            d="M5.102 43.18C3.494 43.18 2.27 42.748 1.43 41.884C0.602 41.02 0.158 39.826 0.0980001 38.302C0.0860001 37.978 0.08 37.45 0.08 36.718C0.08 35.974 0.0860001 35.434 0.0980001 35.098C0.158 33.586 0.608 32.398 1.448 31.534C2.288 30.658 3.506 30.22 5.102 30.22C6.17 30.22 7.076 30.412 7.82 30.796C8.564 31.168 9.128 31.66 9.512 32.272C9.896 32.884 10.106 33.538 10.142 34.234V34.27C10.142 34.366 10.1 34.45 10.016 34.522C9.944 34.582 9.86 34.612 9.764 34.612H8.774C8.534 34.612 8.384 34.474 8.324 34.198C8.12 33.298 7.754 32.668 7.226 32.308C6.698 31.936 5.99 31.75 5.102 31.75C3.038 31.75 1.97 32.896 1.898 35.188C1.886 35.512 1.88 36.01 1.88 36.682C1.88 37.354 1.886 37.864 1.898 38.212C1.97 40.504 3.038 41.65 5.102 41.65C5.99 41.65 6.698 41.47 7.226 41.11C7.766 40.738 8.132 40.102 8.324 39.202C8.36 39.046 8.414 38.938 8.486 38.878C8.558 38.818 8.654 38.788 8.774 38.788H9.764C9.872 38.788 9.962 38.824 10.034 38.896C10.118 38.956 10.154 39.04 10.142 39.148C10.106 39.856 9.896 40.516 9.512 41.128C9.128 41.74 8.564 42.238 7.82 42.622C7.076 42.994 6.17 43.18 5.102 43.18ZM16.1543 43.18C14.8343 43.18 13.8083 42.808 13.0763 42.064C12.3563 41.32 11.9723 40.33 11.9243 39.094L11.9063 38.32L11.9243 37.546C11.9723 36.322 12.3623 35.338 13.0943 34.594C13.8263 33.838 14.8463 33.46 16.1543 33.46C17.4623 33.46 18.4823 33.838 19.2143 34.594C19.9463 35.338 20.3363 36.322 20.3843 37.546C20.3963 37.678 20.4023 37.936 20.4023 38.32C20.4023 38.704 20.3963 38.962 20.3843 39.094C20.3363 40.33 19.9463 41.32 19.2143 42.064C18.4943 42.808 17.4743 43.18 16.1543 43.18ZM16.1543 41.794C16.9103 41.794 17.5043 41.554 17.9363 41.074C18.3803 40.594 18.6203 39.904 18.6563 39.004C18.6683 38.884 18.6743 38.656 18.6743 38.32C18.6743 37.984 18.6683 37.756 18.6563 37.636C18.6203 36.736 18.3803 36.046 17.9363 35.566C17.5043 35.086 16.9103 34.846 16.1543 34.846C15.3983 34.846 14.7983 35.086 14.3543 35.566C13.9103 36.046 13.6763 36.736 13.6523 37.636L13.6343 38.32L13.6523 39.004C13.6763 39.904 13.9103 40.594 14.3543 41.074C14.7983 41.554 15.3983 41.794 16.1543 41.794ZM23.0702 43C22.9502 43 22.8482 42.964 22.7642 42.892C22.6922 42.808 22.6562 42.706 22.6562 42.586V34.054C22.6562 33.934 22.6922 33.838 22.7642 33.766C22.8482 33.682 22.9502 33.64 23.0702 33.64H23.8802C24.0002 33.64 24.0962 33.682 24.1682 33.766C24.2522 33.838 24.2942 33.934 24.2942 34.054V34.684C24.9182 33.868 25.7882 33.46 26.9042 33.46C28.2362 33.46 29.1782 34.012 29.7302 35.116C30.0182 34.612 30.4262 34.21 30.9542 33.91C31.4822 33.61 32.0762 33.46 32.7362 33.46C33.7202 33.46 34.5242 33.796 35.1482 34.468C35.7722 35.14 36.0842 36.112 36.0842 37.384V42.586C36.0842 42.706 36.0422 42.808 35.9582 42.892C35.8862 42.964 35.7902 43 35.6702 43H34.8242C34.7042 43 34.6022 42.964 34.5182 42.892C34.4462 42.808 34.4102 42.706 34.4102 42.586V37.546C34.4102 36.61 34.2122 35.938 33.8162 35.53C33.4322 35.122 32.9222 34.918 32.2862 34.918C31.7222 34.918 31.2362 35.128 30.8282 35.548C30.4202 35.956 30.2162 36.622 30.2162 37.546V42.586C30.2162 42.706 30.1742 42.808 30.0902 42.892C30.0182 42.964 29.9222 43 29.8022 43H28.9562C28.8362 43 28.7342 42.964 28.6502 42.892C28.5782 42.808 28.5422 42.706 28.5422 42.586V37.546C28.5422 36.61 28.3382 35.938 27.9302 35.53C27.5342 35.122 27.0302 34.918 26.4182 34.918C25.8542 34.918 25.3682 35.128 24.9602 35.548C24.5522 35.956 24.3482 36.616 24.3482 37.528V42.586C24.3482 42.706 24.3062 42.808 24.2222 42.892C24.1502 42.964 24.0542 43 23.9342 43H23.0702ZM39.0843 46.42C38.9643 46.42 38.8623 46.378 38.7783 46.294C38.7063 46.222 38.6703 46.126 38.6703 46.006V34.054C38.6703 33.934 38.7063 33.838 38.7783 33.766C38.8623 33.682 38.9643 33.64 39.0843 33.64H39.9123C40.0323 33.64 40.1283 33.682 40.2003 33.766C40.2843 33.838 40.3263 33.934 40.3263 34.054V34.846C40.9983 33.922 41.9823 33.46 43.2783 33.46C44.5383 33.46 45.4803 33.856 46.1043 34.648C46.7403 35.44 47.0823 36.46 47.1303 37.708C47.1423 37.84 47.1483 38.044 47.1483 38.32C47.1483 38.596 47.1423 38.8 47.1303 38.932C47.0823 40.168 46.7403 41.188 46.1043 41.992C45.4683 42.784 44.5263 43.18 43.2783 43.18C42.0303 43.18 41.0583 42.73 40.3623 41.83V46.006C40.3623 46.126 40.3263 46.222 40.2543 46.294C40.1823 46.378 40.0863 46.42 39.9663 46.42H39.0843ZM42.9003 41.722C43.7523 41.722 44.3703 41.458 44.7543 40.93C45.1503 40.402 45.3663 39.706 45.4023 38.842C45.4143 38.722 45.4203 38.548 45.4203 38.32C45.4203 36.052 44.5803 34.918 42.9003 34.918C42.0723 34.918 41.4483 35.194 41.0283 35.746C40.6203 36.286 40.3983 36.934 40.3623 37.69L40.3443 38.374L40.3623 39.076C40.3863 39.784 40.6143 40.402 41.0463 40.93C41.4783 41.458 42.0963 41.722 42.9003 41.722ZM51.985 43.18C51.397 43.18 50.851 43.06 50.347 42.82C49.843 42.58 49.441 42.256 49.141 41.848C48.853 41.428 48.709 40.966 48.709 40.462C48.709 39.67 49.033 39.022 49.681 38.518C50.341 38.002 51.229 37.666 52.345 37.51L55.027 37.132V36.61C55.027 35.386 54.325 34.774 52.921 34.774C52.393 34.774 51.961 34.888 51.625 35.116C51.289 35.332 51.037 35.59 50.869 35.89C50.833 35.998 50.785 36.076 50.725 36.124C50.677 36.172 50.605 36.196 50.509 36.196H49.735C49.627 36.196 49.531 36.16 49.447 36.088C49.375 36.004 49.339 35.908 49.339 35.8C49.351 35.512 49.483 35.188 49.735 34.828C49.999 34.456 50.401 34.138 50.941 33.874C51.481 33.598 52.147 33.46 52.939 33.46C54.283 33.46 55.249 33.778 55.837 34.414C56.425 35.038 56.719 35.818 56.719 36.754V42.586C56.719 42.706 56.677 42.808 56.593 42.892C56.521 42.964 56.425 43 56.305 43H55.477C55.357 43 55.255 42.964 55.171 42.892C55.099 42.808 55.063 42.706 55.063 42.586V41.812C54.799 42.196 54.415 42.52 53.911 42.784C53.407 43.048 52.765 43.18 51.985 43.18ZM52.363 41.83C53.143 41.83 53.779 41.578 54.271 41.074C54.775 40.558 55.027 39.82 55.027 38.86V38.356L52.939 38.662C52.087 38.782 51.445 38.986 51.013 39.274C50.581 39.55 50.365 39.904 50.365 40.336C50.365 40.816 50.563 41.188 50.959 41.452C51.355 41.704 51.823 41.83 52.363 41.83ZM59.7206 43C59.6006 43 59.4986 42.964 59.4146 42.892C59.3426 42.808 59.3066 42.706 59.3066 42.586V34.054C59.3066 33.934 59.3426 33.838 59.4146 33.766C59.4986 33.682 59.6006 33.64 59.7206 33.64H60.5666C60.6866 33.64 60.7826 33.682 60.8546 33.766C60.9386 33.838 60.9806 33.934 60.9806 34.054V34.846C61.3286 34.402 61.7366 34.06 62.2046 33.82C62.6846 33.58 63.2786 33.46 63.9866 33.46C65.1386 33.46 66.0326 33.832 66.6686 34.576C67.3166 35.308 67.6406 36.286 67.6406 37.51V42.586C67.6406 42.706 67.5986 42.808 67.5146 42.892C67.4426 42.964 67.3466 43 67.2266 43H66.3266C66.2066 43 66.1046 42.964 66.0206 42.892C65.9486 42.808 65.9126 42.706 65.9126 42.586V37.6C65.9126 36.748 65.7026 36.088 65.2826 35.62C64.8746 35.152 64.2806 34.918 63.5006 34.918C62.7446 34.918 62.1446 35.158 61.7006 35.638C61.2566 36.106 61.0346 36.76 61.0346 37.6V42.586C61.0346 42.706 60.9926 42.808 60.9086 42.892C60.8366 42.964 60.7406 43 60.6206 43H59.7206ZM71.5794 46.42C71.4834 46.42 71.3994 46.384 71.3274 46.312C71.2554 46.24 71.2194 46.156 71.2194 46.06C71.2194 45.976 71.2494 45.868 71.3094 45.736L72.6954 42.442L69.2574 34.324C69.1974 34.168 69.1674 34.066 69.1674 34.018C69.1674 33.91 69.2034 33.82 69.2754 33.748C69.3474 33.676 69.4374 33.64 69.5454 33.64H70.4274C70.6194 33.64 70.7634 33.742 70.8594 33.946L73.5954 40.498L76.4034 33.946C76.4994 33.742 76.6494 33.64 76.8534 33.64H77.6994C77.8074 33.64 77.8974 33.676 77.9694 33.748C78.0414 33.82 78.0774 33.904 78.0774 34C78.0774 34.036 78.0474 34.144 77.9874 34.324L72.8754 46.114C72.7794 46.318 72.6294 46.42 72.4254 46.42H71.5794ZM84.4585 43C84.3385 43 84.2365 42.964 84.1525 42.892C84.0805 42.808 84.0445 42.706 84.0445 42.586V30.814C84.0445 30.694 84.0805 30.598 84.1525 30.526C84.2365 30.442 84.3385 30.4 84.4585 30.4H85.4125C85.5325 30.4 85.6285 30.442 85.7005 30.526C85.7845 30.598 85.8265 30.694 85.8265 30.814V41.434H91.8025C91.9345 41.434 92.0365 41.476 92.1085 41.56C92.1925 41.632 92.2345 41.734 92.2345 41.866V42.586C92.2345 42.706 92.1925 42.808 92.1085 42.892C92.0245 42.964 91.9225 43 91.8025 43H84.4585ZM94.2231 31.894C94.1031 31.894 94.0011 31.858 93.9171 31.786C93.8451 31.702 93.8091 31.6 93.8091 31.48V30.508C93.8091 30.388 93.8451 30.286 93.9171 30.202C94.0011 30.118 94.1031 30.076 94.2231 30.076H95.3571C95.4771 30.076 95.5791 30.118 95.6631 30.202C95.7471 30.286 95.7891 30.388 95.7891 30.508V31.48C95.7891 31.6 95.7471 31.702 95.6631 31.786C95.5791 31.858 95.4771 31.894 95.3571 31.894H94.2231ZM94.3671 43C94.2471 43 94.1451 42.964 94.0611 42.892C93.9891 42.808 93.9531 42.706 93.9531 42.586V34.054C93.9531 33.934 93.9891 33.838 94.0611 33.766C94.1451 33.682 94.2471 33.64 94.3671 33.64H95.2311C95.3511 33.64 95.4471 33.682 95.5191 33.766C95.6031 33.838 95.6451 33.934 95.6451 34.054V42.586C95.6451 42.706 95.6031 42.808 95.5191 42.892C95.4471 42.964 95.3511 43 95.2311 43H94.3671ZM98.7265 43C98.6065 43 98.5045 42.964 98.4205 42.892C98.3485 42.808 98.3125 42.706 98.3125 42.586V34.054C98.3125 33.934 98.3485 33.838 98.4205 33.766C98.5045 33.682 98.6065 33.64 98.7265 33.64H99.5365C99.6565 33.64 99.7525 33.682 99.8245 33.766C99.9085 33.838 99.9505 33.934 99.9505 34.054V34.684C100.574 33.868 101.444 33.46 102.56 33.46C103.892 33.46 104.834 34.012 105.386 35.116C105.674 34.612 106.082 34.21 106.61 33.91C107.138 33.61 107.732 33.46 108.392 33.46C109.376 33.46 110.18 33.796 110.804 34.468C111.428 35.14 111.74 36.112 111.74 37.384V42.586C111.74 42.706 111.698 42.808 111.614 42.892C111.542 42.964 111.446 43 111.326 43H110.48C110.36 43 110.258 42.964 110.174 42.892C110.102 42.808 110.066 42.706 110.066 42.586V37.546C110.066 36.61 109.868 35.938 109.472 35.53C109.088 35.122 108.578 34.918 107.942 34.918C107.378 34.918 106.892 35.128 106.484 35.548C106.076 35.956 105.872 36.622 105.872 37.546V42.586C105.872 42.706 105.83 42.808 105.746 42.892C105.674 42.964 105.578 43 105.458 43H104.612C104.492 43 104.39 42.964 104.306 42.892C104.234 42.808 104.198 42.706 104.198 42.586V37.546C104.198 36.61 103.994 35.938 103.586 35.53C103.19 35.122 102.686 34.918 102.074 34.918C101.51 34.918 101.024 35.128 100.616 35.548C100.208 35.956 100.004 36.616 100.004 37.528V42.586C100.004 42.706 99.9625 42.808 99.8785 42.892C99.8065 42.964 99.7105 43 99.5905 43H98.7265ZM114.579 31.894C114.459 31.894 114.357 31.858 114.273 31.786C114.201 31.702 114.165 31.6 114.165 31.48V30.508C114.165 30.388 114.201 30.286 114.273 30.202C114.357 30.118 114.459 30.076 114.579 30.076H115.713C115.833 30.076 115.935 30.118 116.019 30.202C116.103 30.286 116.145 30.388 116.145 30.508V31.48C116.145 31.6 116.103 31.702 116.019 31.786C115.935 31.858 115.833 31.894 115.713 31.894H114.579ZM114.723 43C114.603 43 114.501 42.964 114.417 42.892C114.345 42.808 114.309 42.706 114.309 42.586V34.054C114.309 33.934 114.345 33.838 114.417 33.766C114.501 33.682 114.603 33.64 114.723 33.64H115.587C115.707 33.64 115.803 33.682 115.875 33.766C115.959 33.838 116.001 33.934 116.001 34.054V42.586C116.001 42.706 115.959 42.808 115.875 42.892C115.803 42.964 115.707 43 115.587 43H114.723ZM122.322 43C120.426 43 119.478 41.944 119.478 39.832V35.08H118.074C117.954 35.08 117.852 35.044 117.768 34.972C117.696 34.888 117.66 34.786 117.66 34.666V34.054C117.66 33.934 117.696 33.838 117.768 33.766C117.852 33.682 117.954 33.64 118.074 33.64H119.478V30.634C119.478 30.514 119.514 30.418 119.586 30.346C119.67 30.262 119.772 30.22 119.892 30.22H120.738C120.858 30.22 120.954 30.262 121.026 30.346C121.11 30.418 121.152 30.514 121.152 30.634V33.64H123.384C123.504 33.64 123.6 33.682 123.672 33.766C123.756 33.838 123.798 33.934 123.798 34.054V34.666C123.798 34.786 123.756 34.888 123.672 34.972C123.6 35.044 123.504 35.08 123.384 35.08H121.152V39.706C121.152 40.306 121.254 40.762 121.458 41.074C121.662 41.374 121.998 41.524 122.466 41.524H123.564C123.684 41.524 123.78 41.566 123.852 41.65C123.936 41.722 123.978 41.818 123.978 41.938V42.586C123.978 42.706 123.936 42.808 123.852 42.892C123.78 42.964 123.684 43 123.564 43H122.322ZM129.443 43.18C128.207 43.18 127.217 42.802 126.473 42.046C125.741 41.278 125.339 40.234 125.267 38.914L125.249 38.302L125.267 37.708C125.351 36.412 125.759 35.38 126.491 34.612C127.235 33.844 128.213 33.46 129.425 33.46C130.757 33.46 131.789 33.886 132.521 34.738C133.253 35.578 133.619 36.718 133.619 38.158V38.464C133.619 38.584 133.577 38.686 133.493 38.77C133.421 38.842 133.325 38.878 133.205 38.878H126.977V39.04C127.013 39.82 127.247 40.486 127.679 41.038C128.123 41.578 128.705 41.848 129.425 41.848C129.977 41.848 130.427 41.74 130.775 41.524C131.135 41.296 131.399 41.062 131.567 40.822C131.675 40.678 131.753 40.594 131.801 40.57C131.861 40.534 131.963 40.516 132.107 40.516H132.989C133.097 40.516 133.187 40.546 133.259 40.606C133.331 40.666 133.367 40.75 133.367 40.858C133.367 41.122 133.199 41.44 132.863 41.812C132.539 42.184 132.077 42.508 131.477 42.784C130.889 43.048 130.211 43.18 129.443 43.18ZM131.909 37.636V37.582C131.909 36.754 131.681 36.082 131.225 35.566C130.781 35.038 130.181 34.774 129.425 34.774C128.669 34.774 128.069 35.038 127.625 35.566C127.193 36.082 126.977 36.754 126.977 37.582V37.636H131.909ZM139.191 43.18C137.943 43.18 137.001 42.772 136.365 41.956C135.729 41.14 135.393 40.108 135.357 38.86L135.339 38.32L135.357 37.78C135.393 36.544 135.729 35.518 136.365 34.702C137.001 33.874 137.943 33.46 139.191 33.46C140.427 33.46 141.399 33.898 142.107 34.774V30.634C142.107 30.514 142.143 30.418 142.215 30.346C142.299 30.262 142.401 30.22 142.521 30.22H143.385C143.505 30.22 143.601 30.262 143.673 30.346C143.757 30.418 143.799 30.514 143.799 30.634V42.586C143.799 42.706 143.757 42.808 143.673 42.892C143.601 42.964 143.505 43 143.385 43H142.575C142.455 43 142.353 42.964 142.269 42.892C142.197 42.808 142.161 42.706 142.161 42.586V41.83C141.465 42.73 140.475 43.18 139.191 43.18ZM139.569 41.722C140.397 41.722 141.015 41.452 141.423 40.912C141.843 40.36 142.071 39.706 142.107 38.95C142.119 38.818 142.125 38.59 142.125 38.266C142.125 37.93 142.119 37.696 142.107 37.564C142.083 36.856 141.855 36.238 141.423 35.71C140.991 35.182 140.373 34.918 139.569 34.918C138.717 34.918 138.093 35.182 137.697 35.71C137.313 36.238 137.103 36.934 137.067 37.798L137.049 38.32C137.049 40.588 137.889 41.722 139.569 41.722Z"
            fill="#505050"
          />
  </svg>