<svg width="285" height="60" viewBox="0 0 285 60" fill="none" xmlns="http://www.w3.org/2000/svg">
<rect width="281" height="56" transform="matrix(1 0 0 -1 4 60)" fill="url(#paint0_linear)"/>
<rect x="0.5" y="-0.5" width="280" height="55" transform="matrix(1 0 0 -1 0 55)" fill="#FAFAFA" stroke="#374548"/>
<path d="M25.692 32.448H26.628C26.748 33.12 26.856 33.972 26.952 35.004C27.048 36.012 27.072 36.996 27.024 37.956C26.664 38.244 26.232 38.484 25.728 38.676C25.224 38.844 24.684 38.988 24.108 39.108C23.556 39.228 22.98 39.312 22.38 39.36C21.804 39.408 21.252 39.432 20.724 39.432C18.708 39.432 16.908 39.18 15.324 38.676C13.74 38.148 12.396 37.356 11.292 36.3C10.212 35.244 9.372 33.9 8.772 32.268C8.196 30.612 7.908 28.656 7.908 26.4C7.908 24.048 8.232 22.056 8.88 20.424C9.528 18.768 10.404 17.424 11.508 16.392C12.612 15.336 13.896 14.568 15.36 14.088C16.824 13.608 18.36 13.368 19.968 13.368C21.552 13.368 22.884 13.476 23.964 13.692C25.044 13.884 25.992 14.184 26.808 14.592C26.808 14.976 26.796 15.432 26.772 15.96C26.748 16.464 26.712 17.004 26.664 17.58C26.616 18.156 26.556 18.72 26.484 19.272C26.412 19.824 26.34 20.328 26.268 20.784H25.332L23.46 15.6C23.196 15.456 22.752 15.36 22.128 15.312C21.528 15.264 20.928 15.24 20.328 15.24C19.128 15.24 17.988 15.468 16.908 15.924C15.852 16.356 14.916 17.04 14.1 17.976C13.308 18.888 12.672 20.052 12.192 21.468C11.712 22.86 11.472 24.504 11.472 26.4C11.472 28.104 11.688 29.652 12.12 31.044C12.552 32.412 13.176 33.588 13.992 34.572C14.808 35.532 15.804 36.276 16.98 36.804C18.156 37.308 19.488 37.56 20.976 37.56C21.768 37.56 22.428 37.5 22.956 37.38C23.484 37.26 23.832 37.104 24 36.912L25.692 32.448ZM29.7651 30C29.7651 28.488 29.9571 27.156 30.3411 26.004C30.7491 24.828 31.3251 23.844 32.0691 23.052C32.8131 22.236 33.7011 21.624 34.7331 21.216C35.7891 20.784 36.9531 20.568 38.2251 20.568C39.7131 20.568 40.9971 20.796 42.0771 21.252C43.1571 21.708 44.0331 22.356 44.7051 23.196C45.4011 24.012 45.9051 24.996 46.2171 26.148C46.5531 27.3 46.7211 28.584 46.7211 30C46.7211 33.024 45.9531 35.352 44.4171 36.984C42.8811 38.616 40.8171 39.432 38.2251 39.432C36.7851 39.432 35.5371 39.216 34.4811 38.784C33.4251 38.328 32.5491 37.692 31.8531 36.876C31.1571 36.036 30.6291 35.04 30.2691 33.888C29.9331 32.712 29.7651 31.416 29.7651 30ZM33.2211 30C33.2211 31.08 33.3171 32.1 33.5091 33.06C33.7251 34.02 34.0491 34.86 34.4811 35.58C34.9371 36.276 35.5251 36.828 36.2451 37.236C36.9651 37.644 37.8291 37.848 38.8371 37.848C40.1331 37.848 41.1891 37.212 42.0051 35.94C42.8451 34.668 43.2651 32.688 43.2651 30C43.2651 28.896 43.1571 27.876 42.9411 26.94C42.7491 25.98 42.4371 25.152 42.0051 24.456C41.5731 23.736 41.0211 23.172 40.3491 22.764C39.6771 22.356 38.8731 22.152 37.9371 22.152C36.5211 22.152 35.3811 22.788 34.5171 24.06C33.6531 25.332 33.2211 27.312 33.2211 30ZM67.9155 39H60.2115V38.1C60.4515 37.956 60.7395 37.812 61.0755 37.668C61.4355 37.5 61.8555 37.356 62.3355 37.236V28.92C62.3355 27.96 62.2875 27.096 62.1915 26.328C62.1195 25.56 61.9635 24.924 61.7235 24.42C61.5075 23.892 61.1835 23.496 60.7515 23.232C60.3195 22.944 59.7555 22.8 59.0595 22.8C58.5315 22.8 58.0395 22.908 57.5835 23.124C57.1515 23.34 56.7555 23.628 56.3955 23.988C56.0595 24.348 55.7595 24.756 55.4955 25.212C55.2555 25.668 55.0635 26.148 54.9195 26.652V37.236C55.3035 37.356 55.6635 37.488 55.9995 37.632C56.3595 37.752 56.7075 37.908 57.0435 38.1V39H49.3035V38.1C49.6395 37.932 50.0115 37.776 50.4195 37.632C50.8275 37.488 51.2475 37.356 51.6795 37.236V23.088L49.3035 22.8V21.864C50.0715 21.528 50.8515 21.264 51.6435 21.072C52.4595 20.856 53.2515 20.688 54.0195 20.568H54.9195V24.636H54.9555C55.3395 23.508 55.9875 22.548 56.8995 21.756C57.8355 20.964 58.9875 20.568 60.3555 20.568C60.9315 20.568 61.4835 20.628 62.0115 20.748C62.5395 20.868 63.0315 21.096 63.4875 21.432C63.9435 21.744 64.3275 22.188 64.6395 22.764C64.9515 23.34 65.1795 24.084 65.3235 24.996C65.7555 23.676 66.4515 22.608 67.4115 21.792C68.3715 20.976 69.5715 20.568 71.0115 20.568C71.8995 20.568 72.6675 20.688 73.3155 20.928C73.9875 21.144 74.5395 21.54 74.9715 22.116C75.4035 22.692 75.7155 23.472 75.9075 24.456C76.1235 25.44 76.2315 26.688 76.2315 28.2V37.236C77.0475 37.38 77.8395 37.668 78.6075 38.1V39H70.8675V38.1C71.5875 37.716 72.2955 37.428 72.9915 37.236V28.272C72.9915 27.408 72.9435 26.64 72.8475 25.968C72.7755 25.296 72.6195 24.732 72.3795 24.276C72.1395 23.796 71.8035 23.436 71.3715 23.196C70.9395 22.932 70.3635 22.8 69.6435 22.8C68.4915 22.8 67.5915 23.196 66.9435 23.988C66.3195 24.78 65.8635 25.788 65.5755 27.012V37.236C66.4155 37.476 67.1955 37.764 67.9155 38.1V39ZM88.3736 46.2H80.3816V45.3C81.1976 44.916 81.9896 44.628 82.7576 44.436V23.088L80.3816 22.8V21.864C81.1496 21.528 81.9296 21.264 82.7216 21.072C83.5376 20.856 84.3296 20.688 85.0976 20.568H85.9976V24.6H86.0336C86.5136 23.376 87.1856 22.404 88.0496 21.684C88.9136 20.94 90.0416 20.568 91.4336 20.568C93.5696 20.568 95.2256 21.276 96.4016 22.692C97.5776 24.108 98.1656 26.412 98.1656 29.604C98.1656 31.116 97.9616 32.484 97.5536 33.708C97.1696 34.932 96.6056 35.964 95.8616 36.804C95.1416 37.644 94.2536 38.292 93.1976 38.748C92.1656 39.204 91.0136 39.432 89.7416 39.432C88.8536 39.432 88.1576 39.372 87.6536 39.252C87.1496 39.156 86.5976 38.976 85.9976 38.712V44.436C86.3816 44.484 86.7656 44.568 87.1496 44.688C87.5336 44.832 87.9416 45.036 88.3736 45.3V46.2ZM90.2816 22.8C89.1056 22.8 88.1696 23.172 87.4736 23.916C86.7776 24.66 86.2856 25.68 85.9976 26.976V37.056C86.4296 37.32 86.9096 37.524 87.4376 37.668C87.9896 37.788 88.6976 37.848 89.5616 37.848C90.3536 37.848 91.0616 37.644 91.6856 37.236C92.3336 36.828 92.8736 36.252 93.3056 35.508C93.7616 34.764 94.1096 33.9 94.3496 32.916C94.5896 31.908 94.7096 30.804 94.7096 29.604C94.7096 28.62 94.6256 27.72 94.4576 26.904C94.3136 26.064 94.0616 25.344 93.7016 24.744C93.3656 24.12 92.9096 23.64 92.3336 23.304C91.7816 22.968 91.0976 22.8 90.2816 22.8ZM114.416 34.284C114.416 34.812 114.428 35.268 114.452 35.652C114.476 36.036 114.5 36.444 114.524 36.876L117.008 37.236V37.992C116.408 38.304 115.736 38.58 114.992 38.82C114.272 39.06 113.576 39.24 112.904 39.36H112.004C111.764 38.808 111.62 38.208 111.572 37.56C111.524 36.888 111.488 36.156 111.464 35.364H111.284C111.188 35.844 110.996 36.336 110.708 36.84C110.444 37.32 110.084 37.752 109.628 38.136C109.196 38.52 108.68 38.832 108.08 39.072C107.48 39.312 106.796 39.432 106.028 39.432C104.564 39.432 103.364 38.988 102.428 38.1C101.516 37.212 101.06 36.048 101.06 34.608C101.06 33.504 101.276 32.604 101.708 31.908C102.164 31.188 102.824 30.624 103.688 30.216C104.552 29.808 105.62 29.52 106.892 29.352C108.164 29.16 109.64 29.016 111.32 28.92C111.416 27.888 111.44 26.964 111.392 26.148C111.368 25.308 111.236 24.6 110.996 24.024C110.78 23.424 110.444 22.968 109.988 22.656C109.556 22.32 108.98 22.152 108.26 22.152C107.924 22.152 107.54 22.176 107.108 22.224C106.7 22.248 106.292 22.344 105.884 22.512L104.192 26.832H103.256C103.016 26.112 102.8 25.368 102.608 24.6C102.44 23.832 102.332 23.076 102.284 22.332C103.196 21.78 104.204 21.348 105.308 21.036C106.436 20.724 107.684 20.568 109.052 20.568C110.276 20.568 111.248 20.748 111.968 21.108C112.712 21.444 113.276 21.888 113.66 22.44C114.044 22.992 114.296 23.604 114.416 24.276C114.536 24.948 114.596 25.62 114.596 26.292C114.596 27.732 114.56 29.124 114.488 30.468C114.44 31.788 114.416 33.06 114.416 34.284ZM107.468 37.2C108.068 37.2 108.596 37.08 109.052 36.84C109.508 36.6 109.892 36.312 110.204 35.976C110.516 35.64 110.768 35.304 110.96 34.968C111.152 34.608 111.284 34.308 111.356 34.068V30.288C109.964 30.288 108.824 30.36 107.936 30.504C107.048 30.648 106.352 30.876 105.848 31.188C105.344 31.5 104.996 31.896 104.804 32.376C104.612 32.832 104.516 33.36 104.516 33.96C104.516 34.992 104.78 35.796 105.308 36.372C105.836 36.924 106.556 37.2 107.468 37.2ZM138.604 39H130.864V38.1C131.512 37.764 132.22 37.476 132.988 37.236V28.704C132.988 26.88 132.724 25.44 132.196 24.384C131.668 23.328 130.708 22.8 129.316 22.8C128.716 22.8 128.152 22.908 127.624 23.124C127.12 23.34 126.664 23.64 126.256 24.024C125.872 24.384 125.536 24.804 125.248 25.284C124.96 25.74 124.732 26.22 124.564 26.724V37.236C125.308 37.38 126.028 37.668 126.724 38.1V39H118.948V38.1C119.548 37.788 120.34 37.5 121.324 37.236V23.088L118.948 22.8V21.864C119.572 21.6 120.292 21.36 121.108 21.144C121.924 20.928 122.776 20.736 123.664 20.568H124.564V24.6H124.6C125.104 23.496 125.824 22.548 126.76 21.756C127.72 20.964 128.872 20.568 130.216 20.568C131.176 20.568 132.028 20.688 132.772 20.928C133.54 21.144 134.176 21.54 134.68 22.116C135.184 22.692 135.568 23.472 135.832 24.456C136.096 25.416 136.228 26.64 136.228 28.128V37.236C137.188 37.404 137.98 37.692 138.604 38.1V39ZM140.719 22.8C140.359 22.704 140.023 22.584 139.711 22.44C139.423 22.296 139.123 22.128 138.811 21.936V21H146.335V21.9C145.831 22.236 145.147 22.536 144.283 22.8L148.891 33.456L149.575 35.688H149.647L150.187 33.42L153.607 22.8C152.887 22.656 152.227 22.368 151.627 21.936V21H157.783V21.936C157.279 22.272 156.595 22.56 155.731 22.8L150.115 39C149.539 40.536 148.987 41.772 148.459 42.708C147.955 43.668 147.439 44.424 146.911 44.976C146.407 45.528 145.879 45.924 145.327 46.164C144.799 46.428 144.223 46.62 143.599 46.74C143.335 46.284 143.095 45.78 142.879 45.228C142.687 44.676 142.519 44.148 142.375 43.644L142.843 42.78H146.587C146.731 42.588 146.851 42.396 146.947 42.204C147.067 42.036 147.187 41.82 147.307 41.556C147.427 41.292 147.559 40.956 147.703 40.548C147.847 40.14 148.015 39.624 148.207 39L140.719 22.8ZM173.589 37.092C174.237 37.164 174.849 37.284 175.425 37.452C176.001 37.596 176.541 37.764 177.045 37.956V39H167.181V37.956C167.661 37.716 168.153 37.536 168.657 37.416C169.161 37.296 169.653 37.188 170.133 37.092V15.744C169.581 15.648 169.065 15.528 168.585 15.384C168.105 15.216 167.637 15.036 167.181 14.844V13.8H170.421C171.381 13.8 172.425 13.752 173.553 13.656C174.681 13.56 175.761 13.512 176.793 13.512C177.969 13.512 179.121 13.644 180.249 13.908C181.377 14.148 182.373 14.568 183.237 15.168C184.125 15.768 184.833 16.572 185.361 17.58C185.913 18.564 186.189 19.8 186.189 21.288C186.189 22.704 185.913 23.916 185.361 24.924C184.809 25.932 184.065 26.76 183.129 27.408C182.217 28.056 181.173 28.536 179.997 28.848C178.821 29.136 177.609 29.28 176.361 29.28C176.241 29.28 176.049 29.28 175.785 29.28C175.545 29.28 175.281 29.28 174.993 29.28C174.705 29.256 174.429 29.232 174.165 29.208C173.901 29.184 173.709 29.16 173.589 29.136V37.092ZM176.037 15.384C175.461 15.384 174.993 15.396 174.633 15.42C174.273 15.444 173.925 15.492 173.589 15.564V27.228C173.709 27.276 173.877 27.312 174.093 27.336C174.333 27.336 174.573 27.348 174.813 27.372C175.077 27.396 175.329 27.408 175.569 27.408C175.809 27.408 176.001 27.408 176.145 27.408C176.985 27.408 177.777 27.3 178.521 27.084C179.265 26.844 179.913 26.472 180.465 25.968C181.041 25.464 181.497 24.828 181.833 24.06C182.169 23.292 182.337 22.368 182.337 21.288C182.337 19.32 181.773 17.844 180.645 16.86C179.541 15.876 178.005 15.384 176.037 15.384ZM196.331 23.7C196.067 23.844 195.731 24.144 195.323 24.6C194.939 25.032 194.591 25.68 194.279 26.544V37.236C194.759 37.284 195.239 37.38 195.719 37.524C196.199 37.644 196.679 37.836 197.159 38.1V39H188.663V38.1C189.095 37.86 189.503 37.68 189.887 37.56C190.271 37.44 190.655 37.332 191.039 37.236V23.088L188.663 22.8V21.864C189.431 21.528 190.223 21.264 191.039 21.072C191.855 20.856 192.635 20.688 193.379 20.568H194.279V24.384H194.423C194.639 23.904 194.939 23.424 195.323 22.944C195.731 22.464 196.187 22.032 196.691 21.648C197.219 21.264 197.783 20.976 198.383 20.784C199.007 20.568 199.643 20.496 200.291 20.568C200.459 20.88 200.603 21.228 200.723 21.612C200.867 21.972 200.999 22.356 201.119 22.764V23.7H196.331ZM202.839 30C202.839 28.488 203.031 27.156 203.415 26.004C203.823 24.828 204.399 23.844 205.143 23.052C205.887 22.236 206.775 21.624 207.807 21.216C208.863 20.784 210.027 20.568 211.299 20.568C212.787 20.568 214.071 20.796 215.151 21.252C216.231 21.708 217.107 22.356 217.779 23.196C218.475 24.012 218.979 24.996 219.291 26.148C219.627 27.3 219.795 28.584 219.795 30C219.795 33.024 219.027 35.352 217.491 36.984C215.955 38.616 213.891 39.432 211.299 39.432C209.859 39.432 208.611 39.216 207.555 38.784C206.499 38.328 205.623 37.692 204.927 36.876C204.231 36.036 203.703 35.04 203.343 33.888C203.007 32.712 202.839 31.416 202.839 30ZM206.295 30C206.295 31.08 206.391 32.1 206.583 33.06C206.799 34.02 207.123 34.86 207.555 35.58C208.011 36.276 208.599 36.828 209.319 37.236C210.039 37.644 210.903 37.848 211.911 37.848C213.207 37.848 214.263 37.212 215.079 35.94C215.919 34.668 216.339 32.688 216.339 30C216.339 28.896 216.231 27.876 216.015 26.94C215.823 25.98 215.511 25.152 215.079 24.456C214.647 23.736 214.095 23.172 213.423 22.764C212.751 22.356 211.947 22.152 211.011 22.152C209.595 22.152 208.455 22.788 207.591 24.06C206.727 25.332 206.295 27.312 206.295 30ZM241.494 39H233.502V38.1C234.246 37.692 235.038 37.404 235.878 37.236V22.8H228.354V37.236C228.978 37.284 229.566 37.392 230.118 37.56C230.694 37.704 231.234 37.884 231.738 38.1V39H222.738V38.1C223.482 37.668 224.274 37.38 225.114 37.236V22.8H222.378V21.864C223.218 21.336 224.13 20.94 225.114 20.676V19.416C225.114 17.928 225.354 16.704 225.834 15.744C226.314 14.76 226.938 13.992 227.706 13.44C228.474 12.864 229.35 12.468 230.334 12.252C231.342 12.036 232.35 11.928 233.358 11.928C233.838 11.928 234.366 11.964 234.942 12.036C235.542 12.084 236.118 12.168 236.67 12.288C237.246 12.384 237.762 12.504 238.218 12.648C238.698 12.792 239.058 12.948 239.298 13.116C239.226 13.908 239.118 14.532 238.974 14.988C238.83 15.444 238.674 15.936 238.506 16.464H237.426L234.438 13.368C233.742 13.368 233.034 13.44 232.314 13.584C231.618 13.728 230.97 14.004 230.37 14.412C229.77 14.82 229.278 15.408 228.894 16.176C228.534 16.944 228.354 17.952 228.354 19.2V21H232.134C232.638 21 233.154 21 233.682 21C234.234 20.976 234.774 20.952 235.302 20.928C235.854 20.88 236.37 20.832 236.85 20.784C237.354 20.712 237.81 20.64 238.218 20.568H239.118V37.236C239.598 37.356 240.03 37.488 240.414 37.632C240.798 37.752 241.158 37.908 241.494 38.1V39ZM252.316 39H244.324V38.1C245.116 37.716 245.908 37.428 246.7 37.236V14.448L243.964 14.16V13.224C244.588 12.936 245.368 12.684 246.304 12.468C247.24 12.252 248.152 12.072 249.04 11.928H249.94V37.236C250.732 37.428 251.524 37.716 252.316 38.1V39ZM269.732 36.48C269.54 36.888 269.24 37.272 268.832 37.632C268.424 37.992 267.956 38.304 267.428 38.568C266.9 38.832 266.324 39.036 265.7 39.18C265.076 39.348 264.44 39.432 263.792 39.432C262.376 39.432 261.128 39.216 260.048 38.784C258.968 38.328 258.068 37.692 257.348 36.876C256.628 36.036 256.076 35.04 255.692 33.888C255.332 32.736 255.152 31.44 255.152 30C255.152 26.928 255.86 24.588 257.276 22.98C258.692 21.372 260.696 20.568 263.288 20.568C264.128 20.568 264.956 20.688 265.772 20.928C266.588 21.144 267.308 21.516 267.932 22.044C268.58 22.572 269.096 23.28 269.48 24.168C269.888 25.032 270.092 26.112 270.092 27.408C270.092 27.816 270.068 28.236 270.02 28.668C269.996 29.076 269.936 29.52 269.84 30H258.608C258.608 31.008 258.728 31.956 258.968 32.844C259.232 33.708 259.616 34.464 260.12 35.112C260.624 35.76 261.26 36.276 262.028 36.66C262.796 37.02 263.696 37.2 264.728 37.2C265.568 37.2 266.42 37.08 267.284 36.84C268.148 36.6 268.796 36.288 269.228 35.904L269.732 36.48ZM263.144 22.152C261.776 22.152 260.732 22.62 260.012 23.556C259.292 24.468 258.86 26.088 258.716 28.416H266.636C266.66 28.2 266.672 27.996 266.672 27.804C266.696 27.588 266.708 27.384 266.708 27.192C266.708 25.656 266.42 24.432 265.844 23.52C265.268 22.608 264.368 22.152 263.144 22.152Z" fill="#374548"/>
<defs>
<linearGradient id="paint0_linear" x1="140.5" y1="0" x2="140.5" y2="56" gradientUnits="userSpaceOnUse">
<stop stop-color="#C4C4C4"/>
<stop offset="1" stop-color="#C4C4C4" stop-opacity="0"/>
</linearGradient>
</defs>
</svg>
