<svg width="287" height="287" viewBox="0 0 287 287" fill="none" xmlns="http://www.w3.org/2000/svg">
<path d="M140.802 278.981C137.938 278.81 134.743 278.548 133.702 278.398L131.808 278.125L131.9 276.392C132.123 272.189 129.902 265.886 126.988 262.454C122.531 257.205 116.957 254.587 110.255 254.598C106.575 254.605 103.634 255.308 100.323 256.975C97.5602 258.366 93.7943 261.751 92.1386 264.331L90.9695 266.153L88.467 264.892C83.1514 262.216 72.6672 255.698 68.8367 252.689L68.0316 252.057L69.2659 249.597C73.4809 241.199 71.9345 231.493 65.3161 224.807C58.8983 218.323 49.4545 216.555 41.212 220.293L38.8163 221.38L38.2615 220.602C35.3257 216.486 30.4674 207.886 27.6761 201.864L26.114 198.494L28.2284 197.209C34.4091 193.455 38.5745 186.124 38.5745 179.002C38.5745 167.752 29.8137 158.22 18.8902 157.585L16.0413 157.419L15.8683 155.987C15.2504 150.869 15.4107 139.388 16.2082 131.644L16.4227 129.562L19.6015 129.513C25.1224 129.427 30.161 127.262 34.1727 123.251C42.6704 114.753 42.6361 101.428 34.0948 92.9508C32.6449 91.5119 30.7965 90.0227 29.9873 89.6414C29.1781 89.2601 28.5142 88.8272 28.512 88.6793C28.5066 88.3021 30.7262 83.9251 32.6003 80.6174C34.3982 77.444 41.1757 67.0557 41.6322 66.7735C41.799 66.6701 43.327 67.2885 45.0279 68.1465C51.5248 71.4245 58.0155 71.5266 64.4352 68.4516C68.7904 66.3656 71.9744 63.2281 74.1943 58.8352C75.8228 55.6124 76.4334 53.0487 76.4471 49.3763C76.4634 44.9209 75.5204 41.3582 73.46 38.0943L72.5793 36.6992L75.9704 34.4837C82.1581 30.4407 88.8636 26.7836 94.5787 24.3345C96.0752 23.6933 97.3453 23.1685 97.4011 23.1685C97.4568 23.1685 97.9464 24.0668 98.4889 25.1646C100.015 28.2516 104.733 32.8216 107.999 34.3755C110.748 35.6836 114.917 36.7063 117.5 36.7063C122.917 36.7063 128.935 34.1894 132.829 30.2954C136.695 26.43 139.24 20.3198 139.24 14.9063V13.21L144.087 12.9894C150.157 12.7132 161.341 13.2462 165.274 13.9995C166.126 14.1626 166.142 14.2259 166.17 17.5389C166.217 23.3218 168.478 28.5054 172.658 32.4155C175.984 35.5265 179.139 37.1555 183.602 38.0665C192.274 39.8364 202.418 35.0925 206.366 27.4201L206.947 26.2914L209.802 27.7932C211.372 28.6193 213.593 29.8158 214.739 30.4521C216.874 31.6379 228.797 39.4267 228.797 39.6353C228.797 39.7011 228.154 40.7148 227.367 41.8925C223.273 48.0233 222.85 56.275 226.275 63.1755C227.997 66.6431 232.184 70.8303 235.652 72.5517C242.243 75.8239 250.315 75.5861 256.366 71.9408C257.497 71.2594 258.512 70.8339 258.623 70.9944C261.916 75.7841 269.038 88.2471 268.669 88.576C268.6 88.6414 267.907 89.0098 267.129 89.4013C263.648 91.1558 259.645 95.4617 257.966 99.2561C256.252 103.132 255.654 109.014 256.58 112.899C258.39 120.496 264.719 126.956 272.286 128.929C273.473 129.239 275.873 129.505 277.619 129.52L280.794 129.546L281.009 131.461C281.85 138.967 281.95 154.608 281.171 156.721C280.936 157.358 280.619 157.501 279.449 157.501C277.333 157.501 274.052 158.443 271.493 159.785C260.585 165.506 256.584 178.796 262.567 189.436C263.888 191.786 267.618 195.729 269.642 196.915C270.469 197.4 271.146 197.952 271.146 198.142C271.146 198.709 266.811 207.613 264.859 211.055C262.766 214.745 258.137 221.883 255.663 225.236L253.964 227.539L251.36 226.008C242.415 220.748 231.962 222.091 224.632 229.443C222.407 231.675 220.082 235.826 219.254 239.047C218.605 241.573 218.505 246.431 219.052 248.86C219.547 251.059 220.611 253.695 221.7 255.419C222.195 256.202 222.549 256.879 222.487 256.922C221.875 257.351 215.514 261.188 213.337 262.441C209.491 264.655 200.358 268.983 199.999 268.762C199.837 268.661 199.24 267.76 198.672 266.758C198.104 265.755 196.729 264.029 195.618 262.922C191.423 258.742 186.636 256.778 180.64 256.778C174.112 256.778 169.742 258.54 165.31 262.96C161.344 266.915 159.496 270.927 158.843 276.998L158.629 278.994H156.452C155.255 278.994 152.415 279.059 150.142 279.141C147.869 279.223 143.666 279.148 140.802 278.977L140.802 278.981ZM152.691 276.686L156.596 276.462V275.373C156.596 272.48 158.667 267.187 161.041 264.012C165.846 257.585 172.444 254.3 180.504 254.32C187.27 254.338 192.321 256.413 197.047 261.12C198.58 262.648 200.142 264.339 200.518 264.878L201.201 265.859L205.887 263.55C213.015 260.037 219.148 256.372 218.949 255.744C218.858 255.455 218.379 254.254 217.884 253.073C216.676 250.187 216.271 247.876 216.281 243.938C216.295 237.971 218.375 232.716 222.47 228.293C227.491 222.87 232.825 220.547 240.252 220.549C244.746 220.55 246.843 221.028 250.956 222.992C252.357 223.66 253.544 224.156 253.594 224.093C254.551 222.882 259.441 215.436 261.057 212.728C263.536 208.576 268.022 199.791 268.022 199.089C268.022 198.828 267.577 198.353 267.034 198.032C266.49 197.71 265.01 196.351 263.745 195.01C261.235 192.349 258.755 187.764 257.916 184.234C257.241 181.397 257.342 175.499 258.112 172.779C260.62 163.917 268.057 156.996 276.803 155.384L279.028 154.974L279.245 150.252C279.365 147.654 279.316 142.952 279.135 139.802C278.955 136.652 278.802 133.667 278.795 133.17C278.784 132.302 278.681 132.256 276.281 132.032C272.679 131.698 269.993 130.936 266.633 129.296C262.472 127.266 258.353 123.15 256.302 118.975C254.216 114.725 253.681 112.077 253.886 106.999C254.024 103.593 254.229 102.359 255.01 100.23C256.671 95.7018 259.622 91.6702 263.153 89.1027C264.904 87.8293 265.24 87.4254 265.082 86.7887C264.741 85.4234 258.142 74.1959 257.68 74.1959C257.582 74.1959 256.658 74.5952 255.627 75.0826C246.961 79.1825 236.306 77.5309 229.317 71.0045C221.454 63.6611 219.319 52.6353 223.907 43.0692C225.162 40.4524 225.223 40.1942 224.689 39.7331C222.831 38.1277 212.467 31.7523 209.265 30.2451C207.958 29.6301 207.955 29.6302 207.373 30.478C207.052 30.9445 205.849 32.3136 204.698 33.52C193.161 45.6188 172.788 42.1306 165.792 26.8586C164.516 24.074 163.538 20.1586 163.538 17.8346C163.538 16.4211 163.453 16.2638 162.584 16.0798C160.592 15.6583 148.296 15.179 145.089 15.3984L141.74 15.6273L141.358 18.1919C139.735 29.1086 131.788 37.1555 121.016 38.7921C116.107 39.5383 111.289 38.71 106.358 36.2789C103.594 34.9155 98.9189 30.6296 97.4114 28.0777C96.5727 26.658 96.2349 26.3556 95.6758 26.5241C94.1929 26.971 85.7454 31.3552 81.6174 33.8204C75.2903 37.5987 75.7928 37.0097 76.8627 39.3939C78.3077 42.6136 78.8644 45.2692 78.8895 49.0618C78.9346 55.809 76.7831 61.0028 71.9151 65.901C69.442 68.3896 68.3979 69.1576 65.6498 70.5095C58.1401 74.204 50.5137 73.9584 42.6876 69.77C42.1896 69.5035 35.1208 80.7376 32.5376 85.9007L31.6314 87.712L33.5138 89.1026C37.087 91.7422 40.4401 96.4236 41.7294 100.572C43.7031 106.924 43.286 112.727 40.4314 118.628C39.0803 121.421 38.3723 122.386 35.8062 124.93C33.2635 127.452 32.2517 128.185 29.5139 129.492C25.983 131.178 24.3997 131.633 20.7843 132.006C18.9518 132.194 18.4394 132.37 18.4326 132.814C18.4279 133.126 18.2746 136.115 18.0919 139.456C17.7185 146.284 17.9873 154.74 18.5824 154.885C18.7911 154.934 20.2573 155.224 21.8405 155.525C31.0465 157.275 38.6367 164.851 40.5067 174.155C42.3254 183.205 38.5418 192.82 31.0428 198.205C30.2212 198.795 29.5491 199.501 29.5491 199.774C29.5491 200.834 34.9012 210.913 38.1003 215.878L39.5903 218.191L41.946 217.373C47.1744 215.557 52.2793 215.462 57.2713 217.086C61.4201 218.436 64.1195 220.114 67.2362 223.283C71.8131 227.936 73.9806 233.253 73.9806 239.826C73.9806 243.401 73.1619 247.362 71.9193 249.797C71.5257 250.569 71.2037 251.271 71.2037 251.357C71.2037 251.925 84.3217 260.119 88.2491 262.005L89.8475 262.772L93.1088 259.486C95.8034 256.77 96.8827 255.948 99.3206 254.757C100.943 253.963 103.286 253.056 104.527 252.741C107.481 251.991 113.02 251.99 115.982 252.738C122.475 254.379 128.715 259.343 131.54 265.113C133.095 268.288 133.864 270.868 134.235 274.15L134.47 276.221L136.073 276.27C136.956 276.295 139.552 276.425 141.843 276.556C148.27 276.925 148.532 276.928 152.69 276.688L152.691 276.686ZM142.19 255.023C130.453 254.405 120.476 252.168 107.478 247.24C101.109 244.825 90.6523 238.964 84.128 234.153C59.765 216.188 44.2065 189.754 40.2882 159.669C39.3771 152.673 39.2945 140.422 40.1134 133.727C42.6618 112.891 50.4025 94.1819 63.0953 78.1784C66.9733 73.2891 75.8514 64.4109 80.7408 60.533C96.0474 48.3928 113.411 40.9266 133.339 37.9158C141.05 36.7508 154.836 36.6679 162.67 37.7394C177.13 39.717 191.239 44.5241 203.501 51.6508C218.171 60.1769 231.819 73.306 240.828 87.5596C242.474 90.1638 247.195 98.6236 247.195 98.9691C247.195 99.0552 247.72 100.273 248.362 101.674C258.845 124.556 260.669 152.68 253.256 177.138C249.613 189.156 244.026 200.551 237.183 209.92C229.717 220.142 219.256 230.22 209.185 236.894C195.383 246.041 180.658 251.671 164.058 254.149C157.946 255.061 149.411 255.402 142.19 255.023V255.023ZM154.982 251.561C164.205 251.002 174.1 249.091 182.456 246.254C217.446 234.377 243.794 205.019 251.829 168.96C255.653 151.8 255.051 133.338 250.112 116.291C247.779 108.24 243.225 98.0234 238.697 90.6838C230.303 77.0777 217.535 64.2871 204.151 56.0757C169.971 35.104 127.096 35.0893 93.1166 56.0349C79.6338 64.3472 66.7443 77.2522 58.5456 90.6477C37.6765 124.745 37.6859 167.545 58.5702 201.474C66.9793 215.135 79.1388 227.357 92.7264 235.806C109.144 246.015 126.949 251.228 147.571 251.864C148.43 251.889 151.765 251.753 154.982 251.558L154.982 251.561ZM139.999 245.043L138.849 244.932L139.032 243.133C139.365 239.868 139.648 233.694 139.457 233.886C139.353 233.989 138.775 236.332 138.171 239.092C137.568 241.853 136.959 244.237 136.819 244.391C136.678 244.544 136.173 244.572 135.696 244.456C134.849 244.244 134.816 244.111 134.238 238.633C133.913 235.549 133.595 232.974 133.53 232.909C133.465 232.843 133.31 234.948 133.186 237.585C132.886 243.917 132.88 243.941 131.549 243.941H130.467L130.695 239.863C130.82 237.619 131.02 234.164 131.139 232.184L131.356 228.583L133.089 228.788C134.042 228.901 134.894 229.066 134.983 229.155C135.072 229.245 135.364 231.307 135.632 233.739C135.9 236.17 136.175 238.215 136.242 238.282C136.351 238.392 137.691 232.68 138.106 230.333C138.281 229.345 138.378 229.332 141.271 229.921L142.087 230.088L141.836 235.112C141.698 237.876 141.487 241.266 141.367 242.647L141.149 245.156L139.999 245.043ZM143.757 238.471C143.76 234.7 143.856 231.264 143.971 230.834C144.164 230.115 144.38 230.054 146.7 230.054C150.349 230.054 151.287 230.296 151.184 231.213C151.137 231.625 151.087 232.326 151.071 232.77C151.043 233.537 150.936 233.572 148.907 233.464L146.772 233.351L146.765 234.74L146.758 236.128L148.553 236.233L150.348 236.338V237.69V239.042L148.525 239.147L146.703 239.252L146.603 242.289L146.502 245.327H145.127H143.752L143.757 238.471L143.757 238.471ZM154.579 243.786C153.24 242.261 152.656 239.69 152.837 236.11C153.061 231.672 154.706 229.363 157.647 229.36C159.203 229.358 160.241 230.089 161.113 231.798C162.014 233.564 161.999 233.645 160.675 234.146C159.63 234.541 159.499 234.508 158.91 233.702C157.924 232.352 156.683 232.536 156.017 234.13C155.191 236.107 155.533 240.371 156.586 241.223C157.016 241.571 157.506 241.856 157.676 241.856C158.307 241.856 159.373 240.438 159.373 239.599C159.373 238.602 159.438 238.585 161.008 239.152C162.069 239.536 162.152 239.667 161.946 240.628C161.294 243.658 159.934 244.961 157.413 244.972C155.808 244.979 155.52 244.859 154.579 243.787L154.579 243.786ZM165.667 242.636C164.127 241.175 163.537 239.196 163.546 235.513C163.558 230.397 165.181 227.975 168.598 227.972C170.169 227.97 171.19 228.779 171.865 230.558C172.209 231.466 172.161 231.655 171.454 232.199C170.419 232.996 170.049 232.983 169.52 232.134C168.94 231.205 167.531 231.246 166.856 232.207C165.794 233.724 166.355 239.407 167.632 240.063C168.855 240.692 170.134 239.605 170.134 237.937C170.134 236.988 170.193 236.947 171.262 237.176C172.908 237.529 172.996 237.64 172.738 239.013C172.188 241.948 170.557 243.585 168.183 243.585C167.011 243.585 166.448 243.371 165.667 242.63L165.667 242.636ZM122.196 241.809C119.581 240.292 119.158 238.226 119.992 231.041L120.598 225.822L121.664 226.035C122.25 226.152 122.883 226.401 123.07 226.588C123.292 226.811 123.194 228.661 122.786 231.926C122.127 237.194 122.201 238.158 123.309 238.751C125.152 239.737 125.629 238.631 126.425 231.529C126.666 229.381 126.969 227.623 127.099 227.623C127.228 227.623 127.826 227.795 128.427 228.005C129.258 228.294 129.52 228.593 129.52 229.25C129.52 231.214 128.411 238.916 127.98 239.949C126.901 242.53 124.674 243.247 122.196 241.809L122.196 241.809ZM175.338 241.291C175.336 241.124 174.946 237.864 174.47 234.045C173.995 230.227 173.605 227.012 173.605 226.901C173.605 226.677 176.11 225.848 176.278 226.016C176.608 226.346 178.152 240.571 177.887 240.836C177.443 241.28 175.341 241.656 175.338 241.292V241.291ZM106.61 236.215C106.61 236.131 106.923 235.155 107.305 234.045C107.686 232.935 107.999 231.923 107.999 231.795C107.999 231.667 107.151 230.95 106.114 230.201L104.23 228.838L106.694 228.665L109.158 228.491L109.921 226.234L110.684 223.978L111.256 225.887C111.57 226.937 111.947 227.984 112.092 228.213C112.244 228.452 113.378 228.674 114.759 228.733L117.16 228.837L115.183 230.197C114.095 230.945 113.206 231.662 113.206 231.791C113.206 231.921 113.518 232.936 113.901 234.047C114.283 235.158 114.544 236.119 114.481 236.182C114.418 236.247 113.537 235.677 112.522 234.92C111.507 234.163 110.504 233.648 110.293 233.776C110.081 233.904 109.166 234.538 108.259 235.187C107.352 235.836 106.61 236.297 106.61 236.214L106.61 236.215ZM184.018 236.02C184.018 235.852 184.332 234.803 184.716 233.688C185.1 232.573 185.288 231.572 185.133 231.464C184.979 231.357 184.079 230.721 183.134 230.053L181.415 228.838L183.909 228.737L186.402 228.635L186.973 226.827C187.287 225.833 187.628 224.786 187.73 224.499C187.838 224.2 188.243 224.937 188.686 226.235L189.455 228.491L191.919 228.665L194.383 228.839L192.498 230.201C191.462 230.951 190.614 231.746 190.614 231.969C190.614 232.193 190.918 233.259 191.289 234.339C191.661 235.418 191.83 236.302 191.665 236.302C191.501 236.302 191.314 236.178 191.25 236.027C191.186 235.876 190.407 235.236 189.518 234.603L187.903 233.454L185.96 234.889C184.892 235.678 184.018 236.187 184.018 236.02V236.02ZM89.8731 228.337C87.0522 226.529 86.4178 225.561 87.1542 224.184C87.7007 223.163 88.6828 223.207 88.3698 224.242C88.2395 224.672 88.1118 225.168 88.0861 225.344C88.0393 225.662 90.6326 227.546 92.4588 228.52C93.5742 229.116 93.2443 229.509 98.7315 221.042C100.966 217.595 102.064 215.589 101.929 215.201C101.679 214.483 97.7995 212.006 96.9256 212.006C96.5495 212.006 95.8647 212.707 95.2072 213.765C93.9234 215.83 93.9246 215.824 94.7614 215.824C95.7582 215.824 97.1452 217.095 97.5771 218.403C97.8834 219.332 97.8607 219.836 97.4708 220.77C96.876 222.193 95.364 223.461 94.2612 223.461C92.9676 223.461 92.9497 222.827 94.2283 222.293C97.069 221.106 97.3473 218.036 94.6995 217.094C93.2389 216.575 91.096 218.814 91.399 220.543C91.4671 220.929 91.2719 221.228 90.9032 221.305C90.4086 221.406 90.2961 221.183 90.2976 220.102C90.2993 218.743 90.4353 218.478 92.9942 214.829C95.1769 211.717 95.1805 211.212 93.0032 213.526C91.9472 214.648 90.8836 215.5 90.6396 215.419C90.3955 215.336 90.1472 214.809 90.0876 214.246C89.8785 212.269 87.6727 211.382 86.1108 212.646C84.4072 214.026 85.5078 216.866 87.7461 216.866C88.5225 216.866 88.9072 217.031 88.9072 217.364C88.9072 218.763 85.6291 218.014 84.5505 216.367C83.8011 215.224 84.036 213.093 85.0543 211.798C85.9713 210.632 85.9841 209.431 85.0886 208.536C82.8451 206.292 79.5091 209.589 81.6822 211.902C82.2592 212.516 82.3444 212.807 82.0375 213.114C81.4878 213.663 80.378 212.642 79.8777 211.127C79.1657 208.969 81.0369 206.453 83.353 206.453C85.0959 206.453 86.778 208.043 86.9117 209.818C86.9543 210.384 87.2674 210.624 88.1848 210.796C88.9146 210.933 89.8444 211.494 90.5088 212.199L91.6161 213.373L93.0385 211.83C93.8208 210.981 94.4609 210.084 94.4609 209.836C94.4609 209.436 91.0561 205.942 88.4743 203.693C87.6147 202.945 87.4348 202.908 86.6449 203.332C85.2959 204.053 84.7778 203.274 85.9785 202.332C86.4952 201.925 87.1324 201.593 87.3947 201.593C87.848 201.593 92.9954 206.037 94.7791 207.969C95.276 208.507 95.618 209.299 95.618 209.913C95.618 210.83 95.7129 210.926 96.4396 210.743C97.0402 210.593 97.9963 210.981 99.9931 212.189C102.746 213.853 103.664 214.956 103.233 216.081C102.705 217.459 94.4922 229.624 93.9496 229.832C92.941 230.219 92.6228 230.102 89.873 228.341L89.8731 228.337ZM203.978 228.665C203.606 228.064 204.161 227.613 205.01 227.826C205.571 227.967 206.051 227.808 206.543 227.315C207.598 226.26 207.065 225.084 205.41 224.814C203.966 224.579 203.638 224.356 203.964 223.829C204.41 223.106 206.507 223.416 207.433 224.342C208.565 225.473 208.577 226.895 207.466 228.094C206.587 229.043 204.43 229.396 203.978 228.665L203.978 228.665ZM199.932 223.369C197.855 221.614 197.665 219.462 199.431 217.696C200.708 216.419 201.934 216.194 203.447 216.959C205.317 217.906 206.556 221.082 205.421 222.024C204.791 222.547 204.499 222.173 204.499 220.843C204.499 219.22 203.333 217.904 201.895 217.904C200.402 217.904 199.639 218.68 199.639 220.201C199.639 221.582 200.907 223.111 202.053 223.111C202.453 223.111 202.763 223.339 202.763 223.631C202.763 224.433 200.996 224.269 199.932 223.369L199.932 223.369ZM142.537 222.732C106.363 219.788 77.4082 192.368 72.3757 156.29C71.6814 151.312 71.5941 141.762 72.1996 137.025C73.7388 124.986 77.989 113.468 84.5541 103.545C96.5622 85.3949 115.602 73.2875 137.331 69.9854C143.565 69.0379 152.815 68.9625 158.852 69.81C184.242 73.3744 205.716 88.6873 217.302 111.491C228.165 132.869 228.257 158.64 217.549 180.068C208.636 197.901 193.668 211.399 175.236 218.223C168.475 220.727 161.948 222.121 154.029 222.753C149.081 223.149 147.632 223.146 142.538 222.728L142.537 222.732ZM160.588 220.926C165.361 220.01 168.098 219.319 171.966 218.053C192.673 211.275 209.541 195.756 218.162 175.554C228.005 152.488 225.692 125.542 212.082 104.731C208.713 99.5795 206.688 97.0823 202.139 92.4712C188.833 78.9802 170.859 71.1668 151.546 70.4782C132.664 69.805 114.486 76.1063 99.9933 88.3486C77.881 107.027 68.3217 136.502 75.2246 164.721C79.8204 183.508 92.0932 200.33 108.752 210.674C117.305 215.986 128.414 219.937 138.753 221.346C142.431 221.847 157.273 221.562 160.588 220.926V220.926ZM141.67 220.122C123.844 217.949 109.594 211.449 97.6398 200.039C79.0549 182.3 71.0676 157.837 75.5622 132.421C78.0245 118.497 84.8356 105.273 94.972 94.7351C107.265 81.9555 122.677 74.2769 140.108 72.2478C145.795 71.5861 155.176 71.7551 160.28 72.6119C181.247 76.1312 198.888 87.5917 210.809 105.438C216.915 114.578 220.997 125.803 222.398 137.302C223.086 142.948 222.925 152.167 222.042 157.755C217.486 186.573 195.659 210.652 167.515 217.909C160.905 219.613 157.683 220.026 150.001 220.153C146.087 220.219 142.338 220.202 141.67 220.121L141.67 220.122ZM156.047 216.653C157.507 216.092 155.529 214.068 152.702 213.228C150.188 212.481 149.375 211.853 149.112 210.453C148.921 209.433 148.715 209.216 147.794 209.066C147.194 208.969 145.898 208.755 144.915 208.591C142.758 208.231 142.017 208.565 142.017 209.909C142.017 211.163 144.289 213.073 146.136 213.371C147.36 213.569 147.4 213.623 147.503 215.219L147.609 216.863H151.553C153.723 216.863 155.745 216.768 156.047 216.653L156.047 216.653ZM134.311 215.058C135.169 214.2 134.765 213.37 133.138 212.65C131.893 212.099 131.274 212.012 130.274 212.248C128.63 212.637 128.497 213.749 130.041 214.198C130.614 214.365 131.473 214.706 131.95 214.956C133.073 215.545 133.793 215.576 134.311 215.058L134.311 215.058ZM124.449 211.163C124.759 209.928 124.401 209.331 123.207 209.092C121.527 208.756 118.475 208.844 118.233 209.236C118.003 209.609 122.66 211.969 123.668 211.991C123.988 211.998 124.331 211.635 124.449 211.164L124.449 211.163ZM135.567 209.016C136.576 208.628 136.248 206.639 134.947 205.259C134.303 204.577 133.562 204.016 133.298 204.011C133.034 204.008 130.475 203.962 127.611 203.912C121.023 203.797 120.69 203.654 119.679 200.484C119.377 199.536 117.182 199.102 111.715 198.909L106.579 198.727L105.733 197.617C105.267 197.007 104.025 195.914 102.971 195.188C101.918 194.463 101.056 193.762 101.056 193.631C101.056 193.5 102.033 193.081 103.226 192.699C105.927 191.835 106.024 191.212 103.581 190.401C101.384 189.672 100.623 189.893 98.6139 191.843C97.4696 192.954 97.2319 193.388 97.4286 194.008C97.8197 195.24 102.69 199.794 104.004 200.157C104.642 200.333 106.787 200.395 108.77 200.293C111.914 200.132 112.583 200.201 114.002 200.829C115.933 201.683 115.897 202.306 113.857 203.347C113.117 203.725 112.511 204.265 112.511 204.548C112.511 204.83 112.551 205.064 112.598 205.068C112.646 205.072 115.351 205.223 118.61 205.403C125.604 205.791 127.214 206.191 127.374 207.577C127.493 208.612 127.887 208.786 130.562 208.988C133.595 209.216 135.023 209.224 135.566 209.013L135.567 209.016ZM168.422 208.125C169.236 206.319 169.524 206.266 175.903 206.748C179.101 206.99 182.119 207.265 182.608 207.361C183.097 207.456 183.77 207.328 184.103 207.079C184.626 206.684 184.654 206.449 184.306 205.325C183.958 204.202 183.989 203.933 184.536 203.329C185.084 202.723 185.602 202.631 188.466 202.631H191.766L193.272 200.99C194.101 200.087 194.779 199.169 194.779 198.949C194.779 198.526 190.904 197.424 189.414 197.424C188.614 197.424 188.531 197.556 188.531 198.82C188.531 200.9 188.19 200.967 179.332 200.635C175.132 200.478 171.415 200.415 171.071 200.494C170.721 200.576 170.494 200.885 170.554 201.201C170.638 201.638 171.377 201.845 173.878 202.129C176.411 202.417 177.254 202.656 177.852 203.253C179.18 204.581 178.302 204.899 173.56 204.806C169.011 204.716 167.927 205.007 166.887 206.593C166.152 207.716 166.163 208.409 166.923 208.852C167.808 209.368 167.877 209.334 168.422 208.124L168.422 208.125ZM149.463 204.143C148.575 203.184 148.415 202.439 148.924 201.636C149.168 201.25 150.149 201.208 154.125 201.414C156.836 201.555 159.024 201.534 159.022 201.365C159.019 201.2 158.082 200.552 156.939 199.924C154.1 198.365 154.246 197.698 157.524 197.257C159.33 197.015 159.886 196.522 159.497 195.509C159.12 194.527 157.794 194.536 156.216 195.534L154.72 196.479L153.09 195.562C151.227 194.515 150.139 194.414 149.036 195.187C148.044 195.882 148.052 196.382 149.055 196.382C151.065 196.382 152.213 198.693 150.626 199.543C149.676 200.051 141.048 199.755 139.968 199.177C139.487 198.92 139.239 198.447 139.239 197.787C139.239 196.435 138.917 195.688 138.334 195.688C137.809 195.688 137.758 195.87 137.71 197.924C137.674 199.464 137.175 199.755 134.466 199.819C132.841 199.859 132.726 199.637 133.541 198.06C134.231 196.726 133.832 196.251 132.075 196.317C130.54 196.375 130.303 196.575 130.154 197.944C130.046 198.937 129.946 198.997 127.98 199.241C126.846 199.382 125.774 199.641 125.597 199.819C124.688 200.728 125.966 200.895 133.879 200.895C141.595 200.895 142.053 200.927 142.721 201.6C143.109 201.988 143.522 202.782 143.639 203.365C143.907 204.707 144.663 205.01 147.814 205.038L150.314 205.063L149.463 204.145L149.463 204.143ZM165.721 200.201C166.269 199.419 166.178 195.639 165.565 193.673C165.267 192.718 165.058 192.543 164.321 192.632C162.861 192.807 162.641 193.609 163.47 195.726C163.873 196.756 164.297 198.34 164.412 199.247C164.64 201.039 164.967 201.277 165.721 200.201H165.721ZM184.713 197.429C184.713 196.588 183.836 195.354 183.019 195.044C180.847 194.222 179.592 194.255 177.365 195.193C175.174 196.115 174.687 196.138 171.311 195.486C170.047 195.242 169.561 195.942 170.296 196.948C170.695 197.493 171.632 197.631 177.128 197.951C183.115 198.299 184.713 198.189 184.713 197.429V197.429ZM128.063 195.249C129.011 193.267 130.152 192.966 135.128 193.384C138.7 193.684 139.94 193.402 139.927 192.292C139.918 191.378 134.467 185.275 133.66 185.275C133.284 185.275 131.733 185.9 130.215 186.664C128.196 187.678 127.026 188.052 125.866 188.052C124.009 188.052 122.691 188.661 120.373 190.592C118.641 192.034 117.836 192.217 115.462 191.71C114.566 191.518 114.115 191.735 112.233 193.271C109.205 195.741 109.49 195.985 115.583 196.129C118.189 196.195 121.96 196.234 123.962 196.226C127.592 196.208 127.605 196.208 128.063 195.249V195.249ZM193.097 190.551C190.891 188.954 180.266 183.094 173.778 179.895C158.133 172.181 141.341 166.018 119.974 160.15C112.288 158.04 103.446 155.77 102.908 155.77C102.707 155.77 102.608 156.535 102.672 157.592C102.732 158.595 102.878 162.322 102.996 165.875L103.211 172.336L110.204 173.288C133.517 176.463 159.153 181.876 188.184 189.757C193.914 191.312 194.217 191.361 193.097 190.55L193.097 190.551ZM95.5024 187.871C95.5024 187.772 95.0868 187.062 94.5788 186.294C93.5407 184.726 92.7342 184.631 92.246 186.019C91.7169 187.523 92.1549 188.052 93.9295 188.052C94.7946 188.052 95.5024 187.97 95.5024 187.871V187.871ZM199.464 187.355C199.345 187.163 195.626 184.603 191.199 181.665C167.425 165.891 143.95 153.834 114.62 142.332C107.523 139.55 107.453 139.514 103.833 136.852C102.211 135.658 100.336 134.403 99.6679 134.063C98.1695 133.299 96.1966 132.828 96.1966 133.233C96.1966 133.399 97.0333 135.843 98.0559 138.664C99.0785 141.486 100.523 145.494 101.267 147.571C102.226 150.251 102.82 151.426 103.313 151.617C103.694 151.764 106.116 152.392 108.693 153.012C120.756 155.914 137.938 161.291 149.306 165.723C157.37 168.867 160.297 170.068 166.489 172.777C176.195 177.024 180.241 178.933 189.399 183.584C194.489 186.17 197.799 187.652 198.531 187.672C199.221 187.69 199.594 187.565 199.464 187.356V187.355ZM177.83 175.327C177.898 174.975 178.185 174.688 178.469 174.688C179.213 174.688 179.106 175.697 178.346 175.843C177.882 175.932 177.741 175.794 177.83 175.327L177.83 175.327ZM174.012 173.591C174.158 172.832 175.167 172.724 175.167 173.468C175.167 173.752 174.879 174.04 174.528 174.107C174.064 174.196 173.923 174.058 174.012 173.591L174.012 173.591ZM169.809 171.938C169.27 171.288 169.612 170.696 170.525 170.696C171.044 170.696 171.195 170.889 171.112 171.45C170.974 172.392 170.372 172.617 169.809 171.937L169.809 171.938ZM166.055 170.118C165.816 170.022 165.621 169.644 165.621 169.279C165.621 168.796 165.865 168.614 166.513 168.614C167.231 168.614 167.383 168.76 167.294 169.367C167.177 170.162 166.775 170.406 166.055 170.118H166.055ZM161.498 167.822C160.982 167.307 161.003 166.643 161.542 166.445C162.245 166.187 162.844 166.541 162.844 167.217C162.844 167.987 162.028 168.353 161.498 167.823L161.498 167.822ZM156.979 165.706C156.466 165.088 156.851 164.1 157.605 164.1C158.54 164.1 159.047 164.8 158.65 165.542C158.244 166.3 157.531 166.37 156.979 165.706L156.979 165.706ZM152.461 163.616C151.956 163.007 152.51 161.67 153.268 161.67C154.075 161.67 154.694 162.694 154.282 163.348C153.793 164.124 152.982 164.244 152.461 163.616L152.461 163.616ZM147.199 161.467C146.582 160.723 147.204 159.761 148.303 159.761C148.913 159.761 149.164 159.98 149.25 160.589C149.435 161.901 148.051 162.493 147.199 161.467ZM142.031 159.083C141.338 158.249 141.921 157.158 143.058 157.158C143.756 157.158 144.12 157.37 144.278 157.868C144.544 158.707 143.919 159.587 143.058 159.587C142.723 159.587 142.261 159.36 142.031 159.083V159.083ZM137.017 157.051C136.132 156.404 136.404 154.934 137.436 154.788C138.972 154.57 139.746 155.907 138.694 156.959C138.031 157.622 137.814 157.634 137.017 157.051L137.017 157.051ZM131.081 154.379C129.803 152.967 131.921 151.019 133.269 152.367C133.873 152.971 133.78 154.059 133.078 154.591C132.236 155.231 131.811 155.186 131.081 154.379L131.081 154.379ZM125.355 152.298C124.493 151.436 124.477 150.836 125.296 150.095C126.168 149.306 127.297 149.375 127.913 150.255C128.477 151.061 128.328 151.889 127.497 152.558C126.738 153.17 126.157 153.099 125.355 152.298L125.355 152.298ZM119.305 149.67C118.705 149.07 118.654 148.81 118.974 147.977C119.519 146.556 121.939 146.632 122.319 148.083C122.749 149.73 120.532 150.897 119.305 149.67L119.305 149.67ZM113.283 147.592C111.277 146.187 113.459 143.143 115.509 144.486C116.596 145.199 116.623 146.846 115.558 147.592C115.134 147.889 114.622 148.132 114.42 148.132C114.219 148.132 113.707 147.889 113.283 147.592H113.283ZM106.109 144.237C105.812 143.813 105.569 143.212 105.569 142.902C105.569 141.559 107.998 140.634 108.971 141.606C109.2 141.835 109.387 142.507 109.387 143.099C109.387 143.691 109.2 144.363 108.971 144.592C108.28 145.282 106.705 145.087 106.109 144.237V144.237ZM212.329 179.283C216.171 171.79 218.611 164.374 219.836 156.463C220.519 152.052 220.424 139.072 219.681 135.153C219.359 133.456 219.018 131.989 218.923 131.894C218.67 131.642 213.098 131.156 209.794 131.098C207.286 131.057 206.705 131.164 205.108 132.006C202.467 133.393 201.413 133.542 198.35 132.964C195.066 132.344 193.85 132.623 191.657 134.499C189.919 135.988 188.968 136.099 184.366 135.352C181.098 134.821 179.044 134.154 175.462 132.461C171.497 130.586 169.527 130.598 165.687 132.518C163.163 133.781 162.678 133.906 160.636 133.82C158.542 133.731 158.299 133.802 157.299 134.757C156.651 135.379 156.261 136.068 156.322 136.488C156.452 137.392 157.989 137.67 162.995 137.696C166.163 137.714 167.052 137.842 168.375 138.478C170.732 139.611 173.638 142.719 174.473 144.999C175.204 146.996 175.262 147.044 178.887 148.612C179.979 149.084 181.619 150.162 182.532 151.008C184.914 153.215 185.515 153.445 189.572 153.703C191.761 153.843 194.239 154.25 195.776 154.724L198.334 155.513L200.122 154.772C202.608 153.742 203.174 153.824 205.266 155.52C206.783 156.75 207.584 157.111 209.879 157.597C211.406 157.921 212.977 158.1 213.37 157.995C214.32 157.741 215.8 158.929 215.502 159.705C215.338 160.132 214.843 160.28 213.58 160.28C212.645 160.28 210.492 160.542 208.796 160.864C204.376 161.701 203.71 161.641 201.986 160.255C200.389 158.971 200.002 158.925 193.738 159.279C191.778 159.389 191.027 159.229 188.025 158.075C183.76 156.432 178.923 154.026 177.529 152.853C176.953 152.368 175.878 151.069 175.141 149.965C173.267 147.16 171.535 145.007 171.152 145.007C170.701 145.007 170.745 150.62 171.211 152.47C171.706 154.437 173.495 156.508 175.398 157.317C181.337 159.842 182.065 160.472 184.244 164.967C185.077 166.685 186.227 168.929 186.798 169.953C187.483 171.182 187.837 172.303 187.837 173.25L187.837 174.686L192.052 177.116C203.429 183.674 204.743 184.246 208.143 184.122L209.879 184.056L212.328 179.28L212.329 179.283ZM92.899 181.075C95.19 180.855 97.4925 180.458 98.0158 180.191C100.232 179.061 100.581 177.139 99.6393 171.249C98.0131 161.078 95.3068 152.437 92.2514 147.661C90.7921 145.38 89.3371 141.753 88.8529 139.19C88.5044 137.346 88.6536 128.137 89.0381 127.752C89.1248 127.666 90.7505 127.842 92.6508 128.144C94.5511 128.447 96.4189 128.694 96.8015 128.694C97.2799 128.694 98.7574 127.123 101.533 123.664C103.753 120.897 105.569 118.504 105.569 118.345C105.569 118.186 105.085 117.163 104.494 116.071C103.308 113.882 103.328 112.586 104.553 112.197C105.781 111.808 106.791 112.299 107.403 113.583C107.725 114.257 108.12 114.809 108.282 114.809C108.444 114.809 109.756 113.325 111.198 111.512L113.819 108.215L112.944 104.725C111.915 100.619 112.111 99.5356 113.884 99.5356C115.069 99.5356 115.771 100.392 116.162 102.313C116.298 102.981 116.515 103.724 116.645 103.964C116.795 104.241 118.362 102.535 120.944 99.2821L125.008 94.1643V90.4716C125.008 85.7247 125.203 84.7898 126.301 84.2898C127.007 83.9676 127.341 83.9995 128.035 84.454L128.894 85.0164L128.773 90.3086L128.652 95.6009L132.778 102.441C135.047 106.203 137.023 109.236 137.17 109.181C137.316 109.124 139.468 106.656 141.951 103.692L146.465 98.302L146.718 95.0135C147.022 91.0455 147.136 90.7198 149.371 87.4001C152.534 82.7035 153.721 81.8321 156.955 81.8321C159.042 81.8321 159.746 81.5034 161.421 79.7474C163.183 77.9001 165.097 77.3723 167.167 78.1629C170.323 79.3682 170.754 80.8723 171.052 91.7285C171.317 101.37 171.264 101.613 168.097 105.196C165.709 107.898 165.742 108.444 168.311 108.744C171.862 109.159 173.411 109.623 174.426 110.576C175.461 111.549 176.729 114.063 176.729 115.142C176.729 115.485 177.276 116.674 177.944 117.784C178.612 118.893 179.159 120.052 179.159 120.36C179.159 120.763 179.738 121.038 181.246 121.349C183.797 121.876 185.584 123.303 186.102 125.225C186.71 127.482 185.914 128.451 182.394 129.741C181.281 130.149 180.642 131.037 181.143 131.48C181.496 131.792 187.025 132.86 188.288 132.859C188.871 132.859 190.095 132.27 191.35 131.384C193.387 129.947 193.51 129.909 196.106 129.939C197.572 129.957 199.708 130.024 200.854 130.092C202.618 130.196 203.229 130.059 204.846 129.215C206.995 128.09 208.607 127.967 214.854 128.452L218.442 128.73L218.22 127.931C215.476 118.034 211.011 109.104 204.874 101.243C202.84 98.6369 197.182 92.9272 194.226 90.4972C186.073 83.7936 176.109 78.8002 165.959 76.3311C159.223 74.6927 156.366 74.3696 148.612 74.3696C136.523 74.3696 127.754 76.3546 117.197 81.4802C109.574 85.1816 104.307 88.9289 97.9952 95.1423C87.1693 105.8 80.448 118.842 77.5748 134.769C76.6864 139.693 76.6864 152.408 77.5748 157.332C78.962 165.021 80.7308 170.583 83.9045 177.236L86.1138 181.867L87.4235 181.672C88.1439 181.563 90.6077 181.295 92.8987 181.076L92.899 181.075ZM181.241 168.981C181.241 168.803 179.172 167.525 176.642 166.144C174.112 164.762 170.95 162.848 169.615 161.891C165.7 159.085 162.654 158.255 162.912 160.065C162.996 160.65 164.774 161.676 171.522 165.036C179.613 169.063 181.241 169.724 181.241 168.981ZM157.845 155.979C157.632 154.87 156.217 153.339 155.404 153.339C155.152 153.339 154.745 153.581 154.499 153.876C154.122 154.331 154.281 154.645 155.543 155.931C157.262 157.682 158.174 157.701 157.845 155.98V155.979ZM145.141 138.934C145.141 136.172 145.247 135.53 145.792 134.985C146.15 134.627 146.647 134.266 146.898 134.182C147.223 134.074 146.98 133.416 146.049 131.884C144.906 130.002 144.662 129.781 144.075 130.095C142.689 130.836 142.42 131.818 142.307 136.542C142.186 141.584 142.395 142.231 144.142 142.231H145.141L145.141 138.934ZM115.288 137.862C115.288 137.392 107.551 122.445 107.308 122.445C107.075 122.445 105.687 124.185 101.994 129.1L101.022 130.394L101.994 130.909C102.528 131.191 104.059 132.307 105.395 133.386C108.087 135.56 110.494 136.909 112.858 137.568C114.667 138.073 115.288 138.147 115.288 137.862V137.862ZM132.847 133.997C134.358 132.809 137.118 130.652 138.979 129.203C140.841 127.754 142.364 126.41 142.364 126.216C142.364 125.671 139.545 121.057 139.212 121.057C139.05 121.057 138.746 121.376 138.538 121.765C138.329 122.155 136.059 125.668 133.492 129.572C130.926 133.477 128.826 136.759 128.826 136.867C128.826 137.113 129.417 136.691 132.847 133.997L132.847 133.997ZM116.812 124.661C115.611 118.624 114.562 113.619 114.481 113.538C114.349 113.406 111.308 117.372 110.597 118.603C110.404 118.937 111.662 121.797 114.448 127.359C116.724 131.902 118.679 135.623 118.792 135.628C118.905 135.631 118.014 130.697 116.812 124.661ZM123.925 117.412C124.267 108.63 124.493 101.378 124.427 101.296C124.36 101.214 124.113 101.4 123.876 101.706C123.639 102.014 122.151 103.906 120.569 105.911L117.692 109.558L120.308 122.471C121.748 129.574 122.951 135.48 122.983 135.597C123.141 136.171 123.354 132.062 123.925 117.412L123.925 117.412ZM154.852 132.511C156.69 131.015 158.388 130.448 160.414 130.657C162.065 130.826 162.648 130.706 164.724 129.751C169.074 127.754 172.367 127.653 176.307 129.396C177.353 129.858 177.978 129.98 178.058 129.739C178.41 128.684 180.096 127.247 181.615 126.708C182.555 126.374 183.324 125.979 183.324 125.83C183.324 125.299 181.065 124.197 179.517 123.973C177.337 123.657 176.823 123.319 176.54 122.014C176.405 121.392 175.69 119.738 174.95 118.337C174.21 116.937 173.605 115.484 173.605 115.109C173.605 114.161 172.677 112.463 171.952 112.084C171.62 111.911 170.009 111.66 168.371 111.527C164.497 111.212 163.349 110.432 163.396 108.145C163.432 106.45 164.069 105.24 166.013 103.18C168.399 100.652 168.496 100.115 168.212 90.9818C167.995 84.0157 167.872 82.7639 167.317 81.8501C166.309 80.1929 164.968 80.3848 162.724 82.5069C160.633 84.4845 159.618 84.9501 157.354 84.9719C154.969 84.9972 154.061 85.5639 152.319 88.1277C149.749 91.9096 149.653 92.1927 149.653 96.0236C149.653 99.1843 149.714 99.5079 150.348 99.709C151.269 100.002 151.832 101.115 151.534 102.055C151.402 102.472 149.118 106.066 146.459 110.042L141.624 117.271L142.255 118.26C142.601 118.805 143.509 120.278 144.273 121.535C145.037 122.792 145.752 123.824 145.864 123.827C145.975 123.831 147.537 122.673 149.335 121.254C151.133 119.835 153.424 118.091 154.427 117.378C156.104 116.185 156.32 116.118 157.117 116.545C158.079 117.06 158.292 118.456 157.55 119.386C157.312 119.685 155.112 121.454 152.662 123.316C150.212 125.179 148.128 126.912 148.03 127.167C147.932 127.423 148.678 128.979 149.688 130.627C151.52 133.614 151.528 133.621 152.751 133.423C153.425 133.314 154.37 132.903 154.852 132.511L154.852 132.511ZM133.533 122.706C135.014 120.367 136.439 118.124 136.699 117.721C137.098 117.106 137.098 116.928 136.702 116.599C136.328 116.289 135.645 116.896 133.396 119.532L130.562 122.856V124.907C130.562 126.035 130.624 126.958 130.701 126.958C130.777 126.958 132.052 125.044 133.533 122.706ZM131.082 116.481C132.801 114.374 134.156 112.472 134.095 112.254C133.877 111.484 128.77 103.354 128.505 103.354C128.356 103.354 128.128 106.439 127.998 110.209C127.868 113.98 127.668 117.807 127.555 118.714C127.441 119.621 127.486 120.351 127.653 120.337C127.821 120.319 129.364 118.588 131.082 116.481H131.082ZM140.951 111.511L142.08 109.776L140.643 111.256C139.852 112.07 139.307 112.901 139.431 113.101C139.555 113.302 139.694 113.417 139.739 113.356C139.784 113.299 140.33 112.465 140.951 111.511L140.951 111.511ZM203.856 215.459C201.88 212.986 200.031 210.961 199.748 210.961C198.988 210.961 199.403 210.111 200.224 209.989C200.761 209.907 201.839 211.004 204.79 214.631C208.374 219.034 208.935 220.01 207.863 219.972C207.635 219.965 205.832 217.933 203.856 215.459H203.856ZM205.366 214.057C203.266 211.575 201.548 209.278 201.548 208.952C201.548 208.537 201.988 208.269 203.033 208.048C204.837 207.667 205.851 208.055 206.91 209.547C207.608 210.527 207.622 210.637 207.077 210.846C206.667 211.003 206.271 210.788 205.808 210.15C205.345 209.515 204.819 209.226 204.122 209.226C203.566 209.226 203.11 209.317 203.11 209.429C203.11 209.629 206.022 213.043 208.937 216.26C210.338 217.805 210.569 218.618 209.598 218.584C209.371 218.577 207.466 216.539 205.366 214.057L205.366 214.057ZM75.8527 216.336C75.2135 215.696 75.0082 215.169 75.0874 214.367C75.2166 213.061 76.0636 212.584 76.0636 213.817C76.0636 215.131 76.821 215.897 77.9898 215.764C78.9249 215.657 79.0234 215.519 79.1208 214.172C79.2849 211.905 80.5761 212.329 80.5761 214.65C80.5761 215.121 80.1927 215.889 79.7241 216.357C78.5878 217.494 77.0017 217.485 75.8527 216.332L75.8527 216.336ZM209.194 214.685C207.506 212.997 207.491 211.37 209.15 209.712C210.055 208.807 210.622 208.532 211.58 208.532C212.835 208.532 212.98 208.711 212.838 210.094C212.748 210.973 211.492 212.348 210.773 212.355C210.472 212.358 209.992 212.517 209.705 212.708C208.861 213.273 210.9 214.899 212.097 214.617C213.308 214.331 214.218 213.193 214.218 211.964C214.218 211.304 214.396 210.961 214.739 210.961C215.113 210.961 215.259 211.345 215.259 212.331C215.259 214.304 214.137 215.49 212.046 215.726C210.537 215.895 210.329 215.82 209.194 214.685H209.194ZM211.451 210.875L212.183 210.094L211.436 209.979C210.712 209.868 209.358 210.769 209.358 211.362C209.358 211.955 210.741 211.633 211.451 210.875V210.875ZM223.937 210.484C223.937 210.222 224.402 209.914 224.97 209.8C225.699 209.654 226.067 209.336 226.223 208.711C226.553 207.397 225.808 206.71 224.217 206.862C222.763 207 222.401 206.391 223.567 205.767C224.625 205.201 225.557 205.341 226.579 206.22C227.793 207.265 227.849 208.886 226.712 210.097C225.821 211.044 223.937 211.307 223.937 210.484H223.937ZM216.087 210.114C215.717 209.15 216.112 208.358 216.962 208.358C218.057 208.358 218.677 209.321 218.061 210.064C217.491 210.751 216.342 210.78 216.087 210.114V210.114ZM217.394 209.4C217.394 209.218 217.226 209.014 217.021 208.945C216.816 208.88 216.648 209.081 216.648 209.4C216.648 209.718 216.816 209.922 217.021 209.854C217.226 209.788 217.394 209.581 217.394 209.4ZM213.538 207.681C212.815 206.81 213.244 205.928 214.392 205.928C215.109 205.928 215.46 206.119 215.544 206.552C215.681 207.268 215.035 208.185 214.392 208.185C214.152 208.185 213.768 207.957 213.538 207.68V207.681ZM214.912 206.776C214.912 206.596 214.678 206.449 214.392 206.449C213.855 206.449 213.702 206.858 214.093 207.25C214.37 207.527 214.912 207.217 214.912 206.776L214.912 206.776ZM76.1526 207.15C74.3604 206.392 73.271 202.63 74.7619 202.348C75.2587 202.254 75.3693 202.486 75.3693 203.627C75.3693 204.674 75.5613 205.156 76.1408 205.562C77.1763 206.287 78.6042 206.245 79.3075 205.467C80.027 204.672 80.0345 204.366 79.3346 204.366C78.3643 204.366 76.7579 202.435 76.7579 201.269C76.7579 200.294 76.856 200.202 77.886 200.209C79.7766 200.227 81.2705 201.891 81.2705 203.991C81.2705 206.229 78.3046 208.06 76.1526 207.15L76.1526 207.15ZM79.8819 202.824C79.8819 202.266 78.589 201.242 77.8833 201.242C77.5203 201.242 77.5113 201.401 77.839 202.024C78.5162 203.31 79.882 203.845 79.882 202.824H79.8819ZM219.078 206.629C219.078 206.347 219.507 206.013 220.032 205.888C222.345 205.339 223.021 202.978 221.262 201.595C219.567 200.261 217.19 201.627 217.409 203.816C217.486 204.576 217.355 204.907 216.95 204.986C215.614 205.244 216.016 201.791 217.462 200.592C217.778 200.329 218.708 200.04 219.528 199.947C223.271 199.525 224.921 204.401 221.779 206.601C220.778 207.303 219.078 207.32 219.078 206.627V206.629ZM70.9779 200.487C69.9529 199.991 69.033 198.161 69.1762 196.903C69.2769 196.018 69.1407 195.806 68.2725 195.49C66.3491 194.791 65.4009 192.624 66.1184 190.568C66.3369 189.942 66.264 189.788 65.7505 189.788C64.7668 189.788 63.5444 188.777 63.0248 187.533C62.0757 185.262 63.8565 182.503 66.2746 182.5C67.9937 182.497 69.8154 184.002 69.8154 185.426C69.8154 186.282 68.9268 186.061 68.4869 185.095C68.2676 184.613 67.6959 184.071 67.2162 183.888C64.6935 182.929 62.6838 186.34 64.7938 187.999C65.5542 188.597 66.0211 188.665 68.2432 188.497C70.7589 188.307 70.8357 188.325 71.8764 189.366C72.8667 190.356 73.1348 191.257 72.9576 192.999C72.9222 193.342 73.1292 193.607 73.4329 193.607C73.7283 193.607 74.48 194.063 75.1035 194.619C76.0768 195.489 76.2372 195.861 76.2372 197.251C76.2372 198.641 76.0768 199.014 75.1035 199.883C73.9029 200.956 72.4004 201.176 70.9779 200.488V200.487ZM74.4148 198.88C75.1745 198.227 75.211 196.274 74.4771 195.54C73.1721 194.235 71.1201 194.603 70.4923 196.254C69.9852 197.588 70.4561 198.824 71.6662 199.332C72.8069 199.812 73.4527 199.706 74.4146 198.88L74.4148 198.88ZM71.2907 193.537C72.6179 192.002 71.5191 189.672 69.4683 189.672C68.6909 189.672 68.1115 189.927 67.6786 190.462C65.6131 193.013 69.1445 196.019 71.2907 193.537V193.537ZM222.239 199.194C221.414 198.423 221.16 197.89 221.16 196.92C221.16 195.114 221.992 193.727 223.373 193.227C224.466 192.832 224.539 192.711 224.392 191.555C224.265 190.551 224.425 190.088 225.214 189.177C226.394 187.816 228.602 187.177 228.394 188.258C228.325 188.618 227.958 188.969 227.578 189.038C226.445 189.246 225.673 190.173 225.678 191.317C225.686 192.585 225.93 193.016 226.952 193.554C228.096 194.156 228.739 194.043 229.716 193.066C230.435 192.347 230.563 191.965 230.39 191.045C230.154 189.789 230.354 189.394 231.087 189.675C231.404 189.797 231.574 190.402 231.574 191.414C231.574 192.677 231.38 193.16 230.525 194.014C229.603 194.936 229.298 195.042 228.008 194.886C227.201 194.788 226.114 194.599 225.593 194.465C224.112 194.085 223.032 194.523 222.544 195.7C221.989 197.041 222.502 198.333 223.782 198.82C225.057 199.304 225.171 199.275 226.488 198.119C227.877 196.9 228.103 196.847 228.103 197.741C228.103 198.106 227.622 198.809 227.035 199.303C225.525 200.573 223.67 200.531 222.239 199.195V199.194ZM229.947 187.393C228.596 186.547 228.101 185.679 228.108 184.169C228.115 182.602 228.537 182.021 229.457 182.313C230.619 182.682 231.346 184.057 231.12 185.455C230.934 186.599 230.976 186.663 231.918 186.663C233.362 186.663 234.396 185.255 233.991 183.841C233.561 182.343 233.021 181.803 231.948 181.803C230.708 181.803 230.186 181.212 230.186 179.808C230.186 177.672 231.893 175.402 233.341 175.614C234.386 175.768 234.589 176.514 233.625 176.657C232.289 176.855 230.912 179.401 231.592 180.415C231.884 180.85 232.11 180.739 232.965 179.743C234.162 178.349 234.534 178.528 234.397 180.43C234.321 181.482 234.426 181.803 234.836 181.803C235.499 181.803 236.434 180.075 236.434 178.848C236.434 178.117 236.288 177.963 235.685 178.05C234.688 178.194 234.47 177.436 235.371 176.955C236.307 176.454 237.393 177.02 237.677 178.15C237.964 179.294 237.282 181.208 236.201 182.288C235.574 182.915 235.288 183.6 235.24 184.59C235.108 187.305 232.237 188.825 229.947 187.392L229.947 187.393ZM230.168 184.201C229.549 183.044 228.898 183.937 229.46 185.171C229.844 186.014 229.936 186.057 230.229 185.533C230.45 185.138 230.429 184.688 230.168 184.201L230.168 184.201ZM54.9033 182.565C54.3229 181.985 53.848 181.274 53.848 180.985C53.848 179.969 54.5313 178.679 55.0701 178.679C55.5052 178.679 55.569 178.925 55.3864 179.898C55.1148 181.346 55.641 182.151 56.8587 182.151C57.4941 182.151 57.8268 181.851 58.2094 180.936C58.4886 180.267 58.9276 179.721 59.1849 179.721C59.4831 179.721 59.5986 179.437 59.5033 178.939C59.3007 177.879 59.9604 176.249 60.5919 176.249C61.0011 176.249 61.0646 176.589 60.9061 177.927C60.7237 179.467 60.7881 179.668 61.6885 180.377C63.4598 181.77 65.9266 180.344 65.5005 178.171C65.3015 177.157 65.0814 176.897 63.6842 176.025C62.6842 175.401 63.5393 174.705 64.6721 175.22C66.5117 176.059 67.305 179.117 66.0763 180.634C64.6125 182.441 62.2965 182.668 60.7815 181.153L59.7846 180.156L59.5736 181.117C59.3053 182.339 58.4379 183.124 57.05 183.401C56.1399 183.583 55.7831 183.442 54.9032 182.564L54.9033 182.565ZM236.795 174.704C236.072 173.833 236.502 172.952 237.649 172.952C238.366 172.952 238.717 173.142 238.801 173.576C238.939 174.292 238.292 175.208 237.649 175.208C237.409 175.208 237.025 174.981 236.795 174.704V174.704ZM238.09 173.885C238.166 173.659 237.98 173.473 237.678 173.473C237.376 173.473 237.128 173.72 237.128 174.022C237.128 174.635 237.875 174.528 238.09 173.884L238.09 173.885ZM58.605 173.613C56.3366 172.383 56.5059 168.37 58.8716 167.292C60.3822 166.604 61.7256 166.792 62.9207 167.86L64.0205 168.843L66.137 168.357C67.3011 168.089 68.3057 167.725 68.3693 167.547C68.6226 166.841 69.5153 167.236 69.4059 168.006C69.3133 168.658 68.8846 168.894 66.8092 169.435C64.4455 170.052 64.3129 170.141 64.1072 171.237C63.6575 173.634 60.8669 174.84 58.605 173.613L58.605 173.613ZM61.988 172.392C62.6091 171.812 61.6789 171.333 60.6734 171.716C59.7557 172.064 59.533 172.447 59.9843 172.898C60.2526 173.166 61.4952 172.849 61.988 172.392L61.988 172.392ZM59.5241 171.356C60.0081 170.791 60.4527 170.656 61.5104 170.757C62.6917 170.87 62.8725 170.79 62.8679 170.184C62.8603 169.193 62.4833 168.711 61.3909 168.296C59.4824 167.57 57.7529 169.066 58.1915 171.063C58.4579 172.276 58.6924 172.327 59.5241 171.356ZM233.379 173.75C232.331 172.702 233.394 171.04 234.676 171.725C235.783 172.317 235.406 174.167 234.178 174.167C233.968 174.167 233.608 173.979 233.379 173.75ZM234.698 172.778C234.698 172.587 234.464 172.432 234.178 172.432C233.891 172.432 233.657 172.588 233.657 172.778C233.657 172.969 233.891 173.125 234.178 173.125C234.464 173.125 234.698 172.969 234.698 172.778ZM235.291 170.69C234.107 169.759 233.523 167.97 233.996 166.726C234.507 165.381 235.245 165.785 235.106 167.334C235.019 168.31 235.191 168.79 235.871 169.471C236.938 170.537 237.782 170.58 238.991 169.629C240.098 168.758 240.242 166.942 239.273 166.066C238.926 165.751 237.012 165.102 235.021 164.623C229.21 163.226 229.327 163.269 229.213 162.483C229.138 161.971 229.521 161.453 230.517 160.721C231.834 159.753 232.027 159.708 233.486 160.042C234.886 160.362 235.391 160.862 234.855 161.397C234.751 161.502 234.035 161.43 233.265 161.233C232.045 160.923 231.777 160.967 231.168 161.575L230.471 162.272L235.275 163.39C237.917 164.005 240.43 164.59 240.86 164.689C241.598 164.86 241.997 165.835 241.328 165.835C241.156 165.835 241.039 166.629 241.068 167.599C241.114 169.183 241.004 169.465 239.986 170.376C238.594 171.62 236.64 171.751 235.291 170.69L235.291 170.69ZM55.8045 164.921C55.1042 164.221 54.8894 163.661 54.8894 162.538C54.8894 160.566 55.8803 159.351 57.9045 158.841C59.1537 158.526 59.57 158.226 59.9235 157.386C60.657 155.641 59.6578 154.034 57.8399 154.034C56.4458 154.034 55.41 155.122 55.41 156.587C55.41 158.243 54.3991 158.047 54.2602 156.364C54.1685 155.253 54.3381 154.863 55.3536 153.847C57.0184 152.182 58.6542 152.175 60.3045 153.822C61.6652 155.182 61.8485 156.601 60.8772 158.255C60.2972 159.242 60.2979 159.309 60.8902 159.744C62.2897 160.773 62.3144 164.017 60.9312 165.165C60.0921 165.861 59.4618 164.989 60.2083 164.164C61.5445 162.688 60.4438 159.931 58.5181 159.931C57.4699 159.931 55.9305 161.352 55.9305 162.319C55.9305 162.694 56.3322 163.479 56.8231 164.063C57.6343 165.027 57.7142 165.832 56.9987 165.832C56.8451 165.832 56.3075 165.421 55.8042 164.917L55.8045 164.921ZM237.996 162.576C235.418 161.428 234.745 158.755 236.558 156.863C237.876 155.487 239.26 155.258 241.163 156.1C242.7 156.779 243.287 157.502 242.86 158.191C242.714 158.428 242.252 158.249 241.588 157.687C241.015 157.205 240.112 156.81 239.582 156.81C238.638 156.81 238.622 156.843 238.781 158.501C238.881 159.539 238.796 160.284 238.557 160.431C238.344 160.562 238.17 160.895 238.17 161.17C238.17 161.856 240.22 161.828 241.217 161.129C241.972 160.6 242.682 160.7 242.682 161.335C242.682 161.801 241.279 162.613 240.079 162.841C239.506 162.95 238.569 162.834 237.996 162.575L237.996 162.576ZM237.974 159.241C238.085 158.763 238.018 158.139 237.825 157.852C237.514 157.39 237.437 157.39 237.133 157.852C236.74 158.452 236.667 160.053 237.018 160.403C237.349 160.735 237.737 160.264 237.974 159.241H237.974ZM240.79 154.062C240.681 153.886 240.804 153.531 241.062 153.274C242.575 151.76 242.598 149.938 241.117 148.967C238.879 147.501 236.356 150.34 237.984 152.492C238.265 152.863 238.499 153.361 238.505 153.6C238.527 154.445 237.455 154.018 236.759 152.906C234.549 149.373 239.243 145.592 242.298 148.445C243.192 149.281 243.376 149.716 243.376 151.002C243.376 152.212 243.176 152.75 242.461 153.466C241.487 154.439 241.107 154.575 240.79 154.062ZM246.847 154.26C246.847 154.195 247.159 153.78 247.541 153.339C247.923 152.899 248.236 152.261 248.236 151.922C248.236 151.362 247.388 150.215 246.973 150.215C246.578 150.215 245.257 151.061 244.904 151.54C244.298 152.361 243.632 151.729 244.126 150.802C244.72 149.686 245.497 149.198 246.7 149.185C248.888 149.16 250.197 152.095 248.725 153.722C248.228 154.271 246.847 154.667 246.847 154.26L246.847 154.26ZM55.7283 151.577C55.1401 151.407 54.3652 150.943 54.0065 150.546C53.4561 149.938 53.432 149.778 53.852 149.518C54.1258 149.349 54.432 149.335 54.5324 149.486C54.8742 150.003 56.2287 150.561 57.1456 150.561C57.9425 150.561 58.0248 150.46 57.7879 149.78C57.6384 149.35 57.5162 148.608 57.5162 148.131C57.5162 147.654 57.6384 146.912 57.7879 146.482C58.0278 145.793 57.9451 145.702 57.0816 145.703C56.5437 145.703 55.6017 146.01 54.9881 146.384C53.7049 147.166 53.0937 146.726 54.0289 145.693C54.9871 144.634 56.7649 144.191 58.181 144.658C60.8871 145.552 61.6802 148.576 59.7217 150.535C59.1343 151.122 58.4442 151.603 58.1881 151.603C57.932 151.603 57.5145 151.668 57.2602 151.744C57.0059 151.826 56.3166 151.747 55.7283 151.576L55.7283 151.577ZM59.5604 148.873C59.6735 148.516 59.5972 147.779 59.3903 147.236C59.0901 146.446 58.9496 146.349 58.6925 146.756C58.3182 147.348 58.2542 148.952 58.5914 149.29C58.9952 149.693 59.3481 149.541 59.5604 148.873L59.5604 148.873ZM62.2556 150.369C61.4645 149.815 61.2004 148.827 61.8434 148.827C62.041 148.827 62.6069 149.092 63.1008 149.416L63.9989 150.004L63.7598 148.915C63.6189 148.274 63.6893 147.512 63.9312 147.06C64.298 146.374 64.2727 146.322 63.694 146.563C62.3955 147.106 61.4841 147.178 61.4841 146.737C61.4841 145.696 63.636 145.006 65.1133 145.573C65.7282 145.809 66.6909 147.451 66.6909 148.264C66.6909 148.545 66.2865 149.255 65.7923 149.843C64.7792 151.047 63.4948 151.238 62.2556 150.371L62.2556 150.369ZM65.3024 148.327C65.3024 147.861 65.1626 147.393 64.9916 147.287C64.5832 147.035 64.2277 147.989 64.4826 148.653C64.7948 149.467 65.3024 149.264 65.3024 148.327V148.327ZM230.532 146.613C230.532 145.622 231.583 145.35 236.265 145.125C240.256 144.934 241.166 144.788 241.697 144.258C242.538 143.416 242.51 141.713 241.64 140.843C240.621 139.824 239.967 139.969 239.84 141.242C239.649 143.162 238.565 143.59 234.561 143.326C231.87 143.148 231.045 142.971 230.754 142.508C230.253 141.71 230.753 141.291 231.585 141.81C232.576 142.43 236.434 142.371 236.434 141.737C236.434 140.82 238.182 139.136 239.363 138.914C241.463 138.521 243.723 140.428 243.723 142.594C243.723 143.553 242.798 145.115 241.896 145.678C241.462 145.95 239.345 146.192 236.383 146.309C233.738 146.414 231.574 146.632 231.574 146.795C231.574 146.958 231.34 147.091 231.053 147.091C230.767 147.091 230.532 146.877 230.532 146.613L230.532 146.613ZM238.729 141.7C239.045 141.217 239.192 140.709 239.054 140.572C238.793 140.312 237.475 141.73 237.475 142.27C237.475 142.877 238.163 142.563 238.729 141.7L238.729 141.7ZM55.3817 142.528C53.4525 141.592 53.0019 138.49 54.5551 136.837C55.2548 136.092 55.2632 136.002 54.7285 134.968C53.497 132.586 55.2905 129.735 58.0202 129.735C60.3189 129.735 62.1861 132.166 61.4388 134.186C61.0498 135.238 60.4427 134.83 60.4427 133.517C60.4427 132.404 59.122 130.777 58.2186 130.777C57.1692 130.777 55.9078 131.613 55.6984 132.447C55.3249 133.935 55.9798 135.07 57.5002 135.568C59.5972 136.256 60.7899 137.571 60.7899 139.195C60.7899 139.936 60.629 140.842 60.4324 141.209C59.6666 142.64 57.0311 143.329 55.3818 142.529L55.3817 142.528ZM58.8965 141.032C59.839 140.09 59.947 139.439 59.3494 138.304C58.8167 137.291 58.3806 137.036 57.1724 137.03C55.816 137.023 54.8876 137.927 54.8941 139.248C54.9002 140.487 55.1368 140.921 56.1037 141.469C57.1832 142.082 57.9703 141.958 58.8965 141.032L58.8965 141.032ZM236.85 137.649C235.798 136.597 237.229 134.712 238.365 135.655C239.245 136.385 238.745 138.066 237.648 138.066C237.438 138.066 237.079 137.878 236.85 137.649ZM238.169 136.678C238.169 136.487 237.935 136.331 237.648 136.331C237.362 136.331 237.128 136.487 237.128 136.678C237.128 136.868 237.362 137.024 237.648 137.024C237.935 137.024 238.169 136.868 238.169 136.678ZM240.45 137.174C240.15 136.873 239.905 136.494 239.905 136.331C239.905 135.945 240.908 134.942 241.293 134.942C241.679 134.942 242.682 135.945 242.682 136.331C242.682 136.716 241.679 137.719 241.293 137.719C241.129 137.719 240.75 137.474 240.45 137.174L240.45 137.174ZM241.64 136.331C241.64 136.14 241.484 135.984 241.293 135.984C241.102 135.984 240.946 136.14 240.946 136.331C240.946 136.522 241.102 136.677 241.293 136.677C241.484 136.677 241.64 136.521 241.64 136.331ZM236.564 134.253C236.158 134.089 235.654 133.463 235.444 132.86C235.164 132.055 234.9 131.812 234.446 131.941C232.123 132.604 229.732 132.892 229.39 132.551C228.815 131.975 229.274 131.745 232.183 131.147C234.866 130.596 234.871 130.593 234.766 129.542C234.553 127.42 237.096 126.534 238.124 128.371C238.816 129.609 238.404 131.052 237.277 131.335C236.076 131.636 236.215 133.033 237.447 133.033C238.174 133.033 238.361 132.764 238.844 131.019C239.603 128.278 240.767 127.569 241.834 129.198C242.45 130.137 242.233 131.471 241.465 131.471C241.161 131.471 241.012 131.125 241.054 130.517C241.097 129.892 240.949 129.562 240.625 129.562C240.31 129.562 239.976 130.249 239.703 131.459C239.443 132.616 238.978 133.597 238.511 133.975C237.658 134.666 237.604 134.674 236.564 134.253L236.564 134.253ZM237.301 129.383C237.301 128.148 236.29 128.255 236.147 129.506C236.056 130.302 236.154 130.467 236.668 130.369C237.078 130.287 237.301 129.943 237.301 129.384L237.301 129.383ZM246.402 131.952C246.285 131.835 246.428 131.374 246.72 130.927C247.417 129.864 247.043 128.756 245.891 128.467C245.148 128.28 244.813 128.442 244.066 129.334C242.976 130.64 242.682 130.701 242.682 129.622C242.682 128.5 244.178 127.189 245.459 127.189C246.888 127.189 248.239 128.504 248.225 129.882C248.207 131.434 247.12 132.669 246.402 131.951L246.402 131.952ZM57.8821 128.548C48.8739 126.733 49.1597 126.989 50.3226 121.786C50.9594 118.937 51.9591 117.762 53.4135 118.152C54.4564 118.431 54.4227 119.322 53.3692 119.322C52.2996 119.322 51.9735 119.79 51.4779 122.038C50.8433 124.918 50.933 125.807 51.8819 126.045C54.765 126.769 65.6289 128.704 66.3419 128.621C67.1278 128.529 67.2606 128.264 67.7804 125.743C68.4117 122.682 68.2877 122.259 66.6669 121.947C66.1074 121.84 65.1906 121.663 64.6296 121.555C63.6399 121.364 63.6103 121.399 63.6284 122.711C63.6512 124.399 63.0343 125.414 61.5578 126.115C60.2978 126.713 58.7568 126.54 57.3964 125.649C56.3124 124.939 55.7577 123.868 56.2293 123.397C56.4825 123.143 56.9031 123.364 57.6157 124.128C58.2196 124.774 58.9834 125.223 59.4805 125.223C60.2237 125.223 60.3041 125.098 60.1654 124.153C60.0583 123.423 60.2392 122.77 60.7331 122.101C61.3592 121.255 61.3892 121.064 60.9535 120.702C60.6761 120.472 60.0181 120.369 59.4913 120.473C57.3669 120.892 57.145 120.881 57.145 120.364C57.145 119.616 59.309 118.996 60.6033 119.373C61.1832 119.542 63.1193 119.982 64.9057 120.349C68.297 121.047 69.4681 121.711 69.4676 122.934C69.4669 124.461 68.3578 128.889 67.8299 129.473C67.0734 130.309 66.2376 130.231 57.8821 128.548L57.8821 128.548ZM62.2762 123.714C62.4492 123.195 62.487 122.502 62.3599 122.174C62.1471 121.625 62.0894 121.631 61.6329 122.248C61.0246 123.074 60.9617 124.988 61.5492 124.792C61.7759 124.718 62.1031 124.23 62.2762 123.71V123.714ZM235.566 125.575C234.416 125.128 233.609 123.969 233.409 122.482C233.239 121.219 233.344 120.953 234.445 119.852C235.771 118.527 237.038 118.285 238.699 119.042C240.502 119.863 241.177 122.697 239.935 124.229C239.1 125.259 238.599 124.826 239.097 123.505C239.658 122.018 239.282 120.765 238.09 120.149C236.763 119.462 235.234 120.016 234.768 121.352C234.352 122.547 234.743 123.554 235.97 124.454C237.054 125.249 236.768 126.042 235.566 125.574V125.575ZM62.1907 118.303C61.2928 116.625 62.2694 114.809 64.0702 114.809C65.217 114.809 65.6886 114.346 65.3961 113.507C65.1232 112.725 64.1904 113.051 62.659 114.462C61.8305 115.225 60.8559 115.85 60.4932 115.85C59.06 115.85 58.5678 113.732 59.8188 112.948C60.5394 112.496 61.0775 112.922 60.5065 113.496C59.9721 114.031 59.9787 114.809 60.5181 114.809C60.7502 114.809 61.6773 114.084 62.5782 113.196C64.1622 111.636 64.2518 111.597 65.2848 112.025C66.3845 112.48 66.7934 113.323 66.6182 114.771C66.5281 115.516 66.7764 115.688 69.0345 116.449C70.5751 116.968 71.5511 117.488 71.5511 117.789C71.5511 118.446 71.0268 118.41 68.684 117.586C66.491 116.816 65.6501 116.719 65.6501 117.24C65.6501 117.899 64.2587 118.975 63.406 118.975C62.9154 118.975 62.3971 118.689 62.1911 118.304L62.1907 118.303ZM64.4197 116.979C64.6623 116.347 64.0289 115.828 63.3381 116.093C62.8665 116.274 62.6999 117.297 63.0803 117.678C63.4026 118 64.1845 117.592 64.4197 116.979L64.4197 116.979ZM232.533 117.389C231.528 116.844 230.532 115.264 230.534 114.219C230.536 113.08 231.912 111.306 233.214 110.762C234.255 110.327 234.739 110.303 235.831 110.63C237.65 111.175 237.344 111.891 235.353 111.747C233.31 111.599 231.921 112.616 231.921 114.26C231.921 115.684 232.831 116.545 234.337 116.545C235.206 116.545 235.772 116.239 236.675 115.282C237.531 114.373 237.971 114.125 238.242 114.396C239.116 115.269 236.16 117.944 234.351 117.918C233.874 117.911 233.055 117.673 232.533 117.39V117.389ZM55.5832 114.911C53.7841 114.253 52.9106 111.961 53.9454 110.613C54.6225 109.731 55.9527 109.138 56.3539 109.54C56.7825 109.968 56.4121 110.643 55.7485 110.643C55.0787 110.643 54.4564 111.91 54.7193 112.738C55.0211 113.689 56.4382 113.969 57.4827 113.285C58.5773 112.568 58.7073 112.582 58.7073 113.411C58.7073 113.819 58.2927 114.311 57.6832 114.626C56.5984 115.187 56.4096 115.213 55.5832 114.911L55.5832 114.911ZM242.157 112.751C242.359 111.558 242.282 111.319 241.542 110.834C240.431 110.107 239.676 110.441 239.151 111.891C238.658 113.255 237.822 113.47 237.822 112.233C237.822 110.925 238.172 110.312 239.235 109.762C240.639 109.037 241.549 109.132 242.524 110.107C243.454 111.037 243.688 112.969 242.959 113.698C242.2 114.457 241.924 114.131 242.157 112.751V112.751ZM222.701 110.608C222.347 110.035 223.549 109.034 225.499 108.277C227.142 107.639 227.246 107.523 227.441 106.104C227.604 104.915 227.939 104.351 229.061 103.372C230.853 101.809 231.105 100.455 229.838 99.1883C227.899 97.2489 224.918 99.6262 226.198 102.092C226.845 103.338 226.848 103.701 226.212 103.701C225.421 103.701 224.631 102.278 224.631 100.852C224.631 98.9166 226.108 97.3796 228.017 97.3295C229.721 97.2887 231.197 98.2336 231.681 99.6845C232.166 101.141 231.417 103.277 230.169 103.99C229.613 104.309 228.991 104.97 228.788 105.459C227.76 107.934 230.873 109.906 232.786 107.992C233.373 107.405 233.496 105.246 232.962 104.916C232.435 104.59 232.547 103.701 233.116 103.701C233.852 103.701 234.698 105.089 234.696 106.295C234.694 107.722 233.527 109.534 232.433 109.809C231.213 110.115 229.187 109.751 228.46 109.091C227.917 108.599 227.687 108.629 225.9 109.419C224.82 109.896 223.937 110.446 223.937 110.639C223.937 111.111 222.997 111.088 222.7 110.606L222.701 110.608ZM63.0116 109.463C61.7886 108.24 61.4348 106.825 62.3521 106.825C62.6384 106.825 62.8728 107.045 62.8728 107.314C62.8728 107.806 64.7668 109.602 65.2849 109.602C65.4368 109.602 65.6591 108.988 65.779 108.238C65.9208 107.352 66.3164 106.624 66.91 106.157L67.823 105.438L66.5844 104.921C65.8514 104.614 64.9119 104.491 64.2828 104.616C63.6982 104.733 63.2199 104.681 63.2199 104.508C63.2199 103.926 64.0394 103.354 64.8748 103.354C65.5657 103.354 65.6588 103.229 65.4596 102.573C65.3293 102.143 65.2221 101.714 65.2215 101.618C65.2132 100.312 65.465 99.667 66.3173 98.8147C69.1187 96.0132 73.8355 99.2805 72.1357 102.845C71.4804 104.219 70.2605 104.573 70.6787 103.267C71.3117 101.291 71.2755 100.301 70.5434 99.5692C69.5736 98.5994 68.2403 98.6488 67.196 99.6929C66.1975 100.691 66.0942 102.059 66.9514 102.929C68.8973 104.904 69.468 105.878 69.468 107.225C69.468 109.28 68.011 110.643 65.8152 110.643C64.4317 110.643 64.0173 110.468 63.0115 109.463L63.0116 109.463ZM67.9362 108.39C68.2479 107.914 68.4045 107.268 68.2841 106.954C68.0839 106.432 68.006 106.437 67.3781 107.003C66.6728 107.641 66.4236 109.253 67.0302 109.253C67.2168 109.253 67.6245 108.863 67.9362 108.388L67.9362 108.39ZM216.532 100.345C215.93 99.7435 216.448 98.7921 217.996 97.6558C218.928 96.9712 219.944 96.4113 220.252 96.4113C221.312 96.4113 220.798 97.2806 219.071 98.41C218.12 99.0323 217.342 99.7738 217.342 100.059C217.342 100.598 216.931 100.744 216.532 100.345V100.345ZM78.1463 98.4941C77.1228 97.7306 76.2291 97.1056 76.1604 97.1056C76.0915 97.1056 75.5858 97.4375 75.0361 97.8444C73.9386 98.6561 72.3731 98.5365 72.0194 97.6148C71.5228 96.3208 72.2475 95.3367 74.4267 94.346C76.1455 93.5646 76.4544 93.3119 75.9458 93.1034C75.528 92.9321 74.6039 93.1772 73.2719 93.8144C70.9862 94.9069 70.1625 94.6859 70.1625 92.9805C70.1625 92.0362 71.2947 91.0046 71.9123 91.3862C72.4251 91.7036 72.3067 92.2453 71.7246 92.2453C71.4353 92.2453 71.2039 92.5537 71.2039 92.9398C71.2039 93.8395 71.5104 93.8152 73.3379 92.7702C75.0549 91.7887 76.4722 91.6565 77.1049 92.4191C77.3426 92.7052 77.7522 92.9398 78.0152 92.9398C78.2782 92.9398 78.4935 93.0956 78.4935 93.2866C78.4935 93.4775 78.3623 93.6333 78.202 93.6333C78.0417 93.6333 77.6953 94.063 77.4321 94.5879C77.169 95.1127 76.9027 95.6413 76.8405 95.762C76.669 96.0939 80.0672 98.493 80.7095 98.493C81.4314 98.493 81.4405 99.3949 80.7211 99.6708C80.4191 99.7865 80.1349 99.8816 80.0895 99.8816C80.0444 99.8816 79.1696 99.2568 78.1461 98.4931L78.1463 98.4941ZM74.9986 96.0974C76.0103 94.6765 75.907 94.5644 74.328 95.3701C72.8735 96.1122 72.4625 97.1057 73.6101 97.1057C73.979 97.1057 74.6038 96.6523 74.9986 96.0976L74.9986 96.0974ZM214.982 97.7304C214.401 97.1498 214.462 96.7585 215.134 96.7585C215.447 96.7585 216.465 96.2894 217.396 95.7171C219.282 94.5563 219.772 94.4434 219.772 95.1694C219.772 95.59 216.189 98.1467 215.6 98.1467C215.489 98.1467 215.211 97.959 214.982 97.7302L214.982 97.7304ZM221.195 96.152C219.768 94.7256 219.545 93.5958 220.372 91.9902C221.2 90.3818 223.307 89.2352 224.599 89.6897C225.899 90.1465 225.662 90.6622 224.054 90.8768C223.259 90.9823 222.366 91.2712 222.069 91.518C221.593 91.9132 221.671 92.1001 222.733 93.1016C223.396 93.7265 223.937 94.5703 223.937 94.9774C223.937 95.3841 224.142 95.7169 224.393 95.7169C225.095 95.7169 226.367 94.3792 226.367 93.6412C226.367 92.8199 226.999 92.3918 227.489 92.8811C227.747 93.1393 227.729 93.5535 227.431 94.2745C226.758 95.8985 225.539 96.8192 223.802 97.0149C222.406 97.1722 222.121 97.0803 221.195 96.1514L221.195 96.152ZM223.243 95.4164C223.243 94.9679 221.853 93.2869 221.482 93.2869C220.959 93.2869 221.115 94.3968 221.735 95.082C222.33 95.7396 223.243 95.9422 223.243 95.4164H223.243ZM65.8544 91.5247C64.8578 90.3404 64.762 89.7866 65.3595 88.6647C65.9413 87.5725 66.7254 87.0624 67.8423 87.0498C69.2149 87.0317 69.9972 87.5368 70.5041 88.761C71.75 91.7688 67.9568 94.0233 65.8543 91.5247H65.8544ZM69.4003 90.0823C69.5115 89.1628 68.7036 88.08 67.9062 88.08C67.2264 88.08 66.3442 89.0632 66.3442 89.8208C66.3442 91.5639 69.1917 91.8074 69.4003 90.0822V90.0823ZM76.4955 90.339C74.4108 88.8333 74.2237 86.0367 76.102 84.4562C77.3122 83.4378 79.5348 83.1995 79.5348 84.088C79.5348 84.4044 79.2121 84.6087 78.7138 84.6087C77.3675 84.6087 76.0636 85.8755 76.0636 87.1835C76.0636 88.6391 76.9798 89.4684 78.5878 89.4684C80.0294 89.4684 80.9233 88.5167 80.9233 86.9818C80.9233 85.7627 81.4753 85.4299 81.9685 86.3512C82.4444 87.2405 81.9119 89.0938 80.9243 89.9878C79.9721 90.8496 77.4766 91.0472 76.4955 90.3389L76.4955 90.339ZM217.342 90.2652C216.531 89.9684 215.259 88.7038 215.259 88.1936C215.259 87.5097 216.105 87.6368 216.821 88.4272C218.161 89.9078 220.813 88.7461 220.813 86.678C220.813 85.4545 219.734 84.2573 218.644 84.2725C218.214 84.2797 217.238 84.6686 216.474 85.1385C214.896 86.1106 212.83 86.3023 212.83 85.4762C212.83 85.1826 213.14 84.9555 213.541 84.9555C214.524 84.9555 216.172 84.0565 216.432 83.378C217.155 81.4958 216.188 79.7487 214.424 79.7487C213.281 79.7487 211.441 81.4448 211.441 82.499C211.441 82.9081 211.216 83.2197 210.92 83.2197C210.07 83.2197 210.292 81.3188 211.279 80.1454C213.583 77.4068 217.445 78.2944 218.005 81.6916C218.182 82.7661 218.402 83.0047 219.599 83.4208C220.362 83.6865 220.987 83.9054 220.987 83.9078C220.987 83.9103 221.002 83.3421 221.016 82.6446C221.062 80.5821 223.364 79.3924 225.302 80.4296C226.267 80.9462 226.858 82.6524 226.38 83.5452C225.9 84.4414 225.327 84.1717 225.327 83.0508C225.327 82.2147 224.518 81.1374 223.891 81.1374C222.825 81.1374 222.203 81.9097 222.203 83.2322C222.203 83.9891 222.057 84.6085 221.88 84.6085C221.684 84.6085 221.677 85.0284 221.862 85.6698C222.645 88.4017 219.896 91.1974 217.343 90.2644L217.342 90.2652ZM72.9395 85.0584C70.9552 84.3327 70.1886 81.8063 71.5422 80.4527C72.3889 79.606 73.9087 79.1915 74.3926 79.6754C74.9169 80.1993 74.4179 80.7909 73.4519 80.7909C72.6801 80.7909 71.8981 81.6405 71.8981 82.4789C71.8981 83.3201 73.0571 83.9702 74.1807 83.7595C75.5823 83.4962 75.9927 84.0292 74.9508 84.7591C74.1404 85.3266 73.8086 85.3757 72.9395 85.0585V85.0584ZM82.3956 84.4967C80.2147 83.2855 79.8327 80.44 81.6121 78.6606C82.4526 77.8201 82.8895 77.6451 83.9283 77.7327C85.5406 77.8687 85.9531 78.7085 84.4076 78.7085C83.0682 78.7085 81.6175 80.0539 81.6175 81.2962C81.6175 83.12 84.0422 84.2365 85.5726 83.1174C85.9117 82.8698 86.2994 82.1275 86.4342 81.4686C86.7091 80.1245 87.6291 79.8278 87.7999 81.0282C87.9721 82.2375 86.8917 83.9227 85.5975 84.4635C84.1659 85.0613 83.4264 85.0695 82.3955 84.4961L82.3956 84.4967ZM89.3478 79.2353C87.2215 78.3109 86.1644 75.2927 87.3661 73.577C88.0587 72.5882 89.7727 71.6984 90.7228 71.8343C91.2963 71.9164 91.5238 71.6947 91.7496 70.8333C92.5597 67.744 96.6649 67.1166 98.3191 69.8293C99.1048 71.1178 99.1457 72.1621 98.4621 73.4841C98.0109 74.3564 98.0113 74.5238 98.4652 74.9005C98.7482 75.1351 99.3126 75.9196 99.7192 76.6431C100.126 77.3663 100.775 78.0413 101.162 78.1424C101.753 78.2975 101.794 78.4114 101.418 78.8648C101.172 79.161 100.754 79.4027 100.489 79.4027C100.007 79.4027 97.5851 75.9424 97.5851 75.2539C97.5851 75.0539 97.2727 74.8898 96.8909 74.8898C96.509 74.8898 96.1966 74.7333 96.1966 74.5431C96.1966 74.3522 96.509 73.8839 96.8909 73.5017C97.7772 72.6153 97.8092 70.6879 96.9499 69.9107C96.0413 69.0884 94.2852 69.1809 93.4328 70.0959C92.5113 71.085 92.5532 71.9727 93.6018 73.6752C94.6322 75.3481 94.7816 77.4327 93.8584 77.2549C93.4655 77.1812 93.183 76.6883 93.0454 75.8421C92.764 74.1109 91.847 73.1545 90.4687 73.1545C89.3213 73.1545 88.4517 73.8507 88.0837 75.0649C87.7597 76.1335 89.0582 77.9924 90.3025 78.2413C91.5348 78.4882 91.9678 79.0096 91.2942 79.4361C90.6898 79.819 90.6903 79.8191 89.3474 79.2352L89.3478 79.2353ZM205.166 78.7351C204.015 77.5837 203.81 75.7039 204.672 74.1959C205.456 72.824 205.312 71.5631 204.278 70.7498C203.775 70.3538 203.093 70.0307 202.763 70.0307C201.684 70.0307 200.333 71.3883 200.333 72.4722C200.333 73.3995 201.444 74.8904 202.134 74.8904C202.289 74.8904 202.416 75.1251 202.416 75.4111C202.416 76.5577 200.475 75.7687 199.696 74.3058C197.81 70.7656 202.076 67.2877 205.141 69.8666C206.57 71.0688 206.795 72.377 205.909 74.3227C204.989 76.3407 205.008 76.8195 206.045 77.8567C207.713 79.5246 210.053 78.493 210.053 76.0891C210.053 75.085 209.861 74.7492 209.013 74.2668C207.818 73.5862 207.64 72.8077 208.68 72.8077C209.577 72.8077 210.996 74.206 211.291 75.3812C212.162 78.8528 207.718 81.287 205.166 78.7355L205.166 78.7351ZM79.6042 76.903C78.5807 75.8796 79.4935 74.4096 80.8365 74.9186C82.019 75.3671 81.6661 77.3196 80.4026 77.3196C80.1926 77.3196 79.8333 77.1319 79.6042 76.903H79.6042ZM80.7497 75.584C80.5818 75.3124 80.3821 75.2922 80.1507 75.5265C79.9598 75.7174 79.9169 76.0571 80.0555 76.2809C80.2234 76.5525 80.4231 76.5727 80.6545 76.3384C80.8454 76.1475 80.8883 75.8079 80.7497 75.5832V75.584ZM191.894 76.7483C191.413 76.2678 191.681 75.2483 192.783 73.3623C193.896 71.4585 194.779 70.859 194.779 72.0074C194.779 72.3313 194.367 73.1905 193.864 73.9168C193.361 74.6433 192.931 75.5758 192.909 75.9894C192.869 76.761 192.318 77.1728 191.894 76.7487V76.7483ZM105.339 72.9961L104.05 70.7554L102.617 70.9521C100.163 71.2884 99.1158 69.3994 100.955 67.953C102.006 67.1262 103.318 67.2437 104.051 68.2311C104.457 68.7772 104.524 68.7772 105.075 68.2347C106.208 67.1177 105.465 66.559 102.845 66.559C100.288 66.559 99.436 66.1006 99.8089 64.9259C100.07 64.102 101.239 63.3934 101.91 63.6512C102.643 63.9325 102.591 64.879 101.85 64.7518C101.495 64.6943 101.201 64.9123 101.122 65.3011C100.998 65.9038 101.156 65.935 103.231 65.7128C105.067 65.5161 105.577 65.5757 106.042 66.0407C106.897 66.896 106.759 68.4743 105.76 69.2601L104.91 69.9284L106.281 72.274C107.787 74.8523 107.899 75.2369 107.14 75.2369C106.858 75.2369 106.048 74.2285 105.339 72.9961H105.339ZM102.792 69.6902C103.247 69.4024 103.236 69.2851 102.705 68.7533C102.146 68.1932 102.054 68.19 101.536 68.7041C100.583 69.6574 101.591 70.4463 102.792 69.6868L102.792 69.6902ZM189.382 74.8633C189.24 74.6319 189.365 74.3188 189.668 74.1491C189.965 73.9828 190.688 73.0661 191.276 72.112C191.863 71.1579 192.491 70.3773 192.673 70.3773C193.498 70.3773 193.32 71.2071 192.097 73.0557C190.781 75.0448 189.87 75.6515 189.382 74.8635V74.8633ZM194.567 71.0783C193.316 70.5724 192.349 69.019 192.349 67.5126C192.349 66.3695 192.583 65.8967 193.697 64.7824C195.069 63.41 196.515 62.9914 196.515 63.9665C196.515 64.2594 196.241 64.5946 195.907 64.7127C195.045 65.0168 193.738 66.2537 193.738 66.7657C193.738 67.0037 194.205 67.3012 194.775 67.4258C195.345 67.5513 196.179 68.122 196.627 68.6948L197.442 69.736L198.043 68.8179C198.388 68.2923 198.598 67.4295 198.534 66.8008C198.398 65.4403 199.436 65.0085 199.758 66.2915C200.198 68.0432 199.059 70.2199 197.323 70.9452C196.044 71.4798 195.612 71.5003 194.567 71.0779L194.567 71.0783ZM196.168 69.7077C196.168 69.1485 195.104 68.2944 194.407 68.2944C193.587 68.2944 193.564 68.5681 194.312 69.3952C194.911 70.0561 196.168 70.2681 196.168 69.7076L196.168 69.7077ZM122.473 66.9814C121.785 66.2221 120.361 60.306 120.768 59.8993C120.929 59.7377 121.541 59.8418 122.128 60.1379C123.896 61.0199 125.702 59.891 125.702 57.9037C125.702 55.9173 122.429 54.9904 121.331 56.666C120.72 57.5988 119.801 57.8354 119.801 57.0596C119.801 56.124 121.222 54.7819 122.458 54.55C124.343 54.1968 125.858 55.0781 126.818 57.088C127.829 59.203 129.063 59.745 130.476 58.6944C131.781 57.7237 131.979 55.7536 130.851 54.963C130.416 54.6589 129.47 54.4095 128.749 54.4095C127.385 54.4095 126.895 53.6511 127.987 53.2317C130.474 52.2774 133.458 55.0337 132.796 57.6733C132.287 59.6993 129.318 60.9697 127.44 59.9649C126.924 59.6886 126.585 59.8278 125.754 60.6594C124.986 61.4268 124.389 61.6994 123.472 61.6994C122.091 61.6994 122.069 61.7568 122.623 64.0623C123.242 66.6284 123.226 66.6244 128.19 65.5257C130.609 64.9903 132.76 64.4457 132.972 64.3148C133.184 64.1843 133.314 63.6596 133.261 63.1486C133.195 62.5123 133.329 62.22 133.686 62.22C134.329 62.22 134.563 63.8321 134.058 64.7767C133.78 65.2957 132.619 65.7138 129.188 66.5295C123.964 67.7714 123.232 67.8207 122.473 66.9812L122.473 66.9814ZM186.254 66.7558C185.277 66.0342 186.01 65.3681 187.26 65.8431C190.012 66.8897 191.867 63.1113 189.396 61.4917C188.272 60.7554 186.973 61.0907 186.216 62.3122C185.152 64.0289 183.902 65.1703 183.086 65.1703C182.049 65.1703 182.053 64.5661 183.093 64.092C184.027 63.6665 185.06 62.083 185.06 61.0766C185.06 60.1307 184.03 58.9955 182.939 58.7381C182.274 58.5815 181.774 58.7453 181.056 59.3645C180.206 60.0959 180.085 60.437 180.12 61.9933C180.15 63.2745 180.029 63.7817 179.697 63.7817C178.715 63.7817 178.491 61.2428 179.33 59.62C180.046 58.2353 181.167 57.5334 182.66 57.5334C184.028 57.5334 185.577 58.5114 185.92 59.5905C186.088 60.1219 186.368 60.2088 187.446 60.0636C189.246 59.8224 190.873 60.7089 191.534 62.2915C192.177 63.8298 191.917 64.9615 190.623 66.2556C189.492 67.3861 187.429 67.6221 186.254 66.7549L186.254 66.7558ZM108.086 66.3286C107.847 66.2327 107.652 65.8374 107.652 65.451C107.652 64.9074 107.789 64.8115 108.259 65.0271C108.593 65.1804 109.396 65.3019 110.043 65.2961C111.442 65.2889 112.164 64.4693 112.164 62.9006C112.164 60.1715 108.31 59.7716 107.471 62.4136C107.347 62.8047 107.064 63.0646 106.841 62.99C105.456 62.5292 107.291 59.7794 109.226 59.4165C110.695 59.1409 112.383 60.0372 113.204 61.5288C113.518 62.0987 114.194 62.7696 114.705 63.0186C116.718 63.9987 118.81 61.6559 117.688 59.6784C117.218 58.852 116.957 58.7491 115.356 58.7622C114.09 58.7695 113.553 58.6407 113.553 58.3211C113.553 57.0271 117.061 56.9251 118.202 58.1858C120.65 60.8914 118.569 64.7387 114.872 64.3405C113.471 64.1898 113.21 64.2585 113.025 64.844C112.623 66.1115 109.715 66.9849 108.085 66.3275L108.086 66.3286ZM155.726 64.4731C155.607 64.2803 155.754 63.8786 156.053 63.5804C156.352 63.2821 156.596 62.5216 156.596 61.8909C156.596 61.2603 156.693 60.256 156.813 59.6594C157.009 58.6787 156.948 58.5746 156.172 58.5746C154.141 58.5746 153.416 55.6128 155.286 54.9587C156.084 54.68 156.467 54.7932 157.716 55.6754C159.891 57.2116 160.067 57.2897 160.067 56.7188C160.067 56.4393 159.286 55.6491 158.331 54.9632C156.43 53.597 156.019 52.3126 157.27 51.6431C158.074 51.2135 159.72 51.8268 159.72 52.556C159.72 53.0996 158.819 53.1824 158.501 52.6684C158.382 52.4739 158.138 52.4052 157.96 52.5151C157.263 52.9464 157.712 53.5835 159.371 54.5153C161.114 55.4941 161.365 55.9284 161.378 57.9833C161.382 58.6778 161.221 58.9377 160.812 58.8978C160.498 58.8653 159.694 58.8653 159.026 58.8798L157.811 58.9206L157.73 61.4339C157.668 63.3365 157.504 64.0525 157.056 64.381C156.338 64.9066 156.012 64.9271 155.726 64.4656L155.726 64.4731ZM157.563 56.6655C156.164 55.7152 155.711 55.6107 155.371 56.1596C154.947 56.8459 155.969 57.5329 157.413 57.5329H158.84L157.563 56.6655ZM141.38 63.436C139.945 62.3966 139.237 60.6804 139.722 59.4162C140.095 58.4447 140.798 59.1038 140.905 60.5243C140.975 61.459 141.236 62.0416 141.72 62.3437C142.111 62.5881 142.511 62.7086 142.608 62.612C142.705 62.5151 142.611 60.3731 142.4 57.8521C141.899 51.864 141.909 51.2852 142.508 51.2852C142.779 51.2852 143.062 51.4707 143.138 51.6976C143.235 51.9905 143.518 51.9395 144.112 51.5237C145.733 50.3877 148.438 51.0809 149.239 52.8373C150.148 54.8332 149.502 56.9081 147.68 57.8396C146.719 58.3307 145.252 58.3406 144.953 57.8577C144.633 57.3395 144.891 57.1673 146.232 57.0013C146.873 56.9192 147.67 56.5232 148.004 56.1156C149.998 53.6815 146.537 50.8452 144.273 53.0582C143.666 53.6519 143.588 54.1396 143.649 56.937C143.687 58.697 143.815 60.9464 143.931 61.9355C144.114 63.4888 144.051 63.7832 143.467 64.096C142.922 64.387 142.514 64.2583 141.38 63.4367L141.38 63.436ZM98.1916 62.7456C97.7101 62.3668 97.2171 61.6625 97.0961 61.1805C96.5856 59.1466 99.0595 56.9865 100.926 57.8368C102.13 58.3854 101.788 59.1234 100.393 58.9836C99.0768 58.8516 98.2794 59.4075 98.2794 60.4569C98.2794 61.4281 98.9058 62.0458 99.8904 62.0458C100.843 62.0458 101.32 62.7067 100.667 63.1208C99.9052 63.6037 99.1333 63.4865 98.1917 62.746L98.1916 62.7456ZM164.315 63.0309C163.385 62.1008 164.328 60.7674 165.625 61.179C166.169 61.3519 166.328 61.6464 166.249 62.3358C166.129 63.3661 165.041 63.7572 164.315 63.0312L164.315 63.0309ZM165.621 62.2191C165.621 61.9331 165.474 61.6985 165.294 61.6985C164.857 61.6985 164.543 62.2405 164.821 62.5176C165.211 62.9087 165.621 62.7555 165.621 62.2193L165.621 62.2191ZM172.828 61.5197C171.521 60.7867 170.713 59.1199 170.979 57.7036C171.522 54.8108 175.034 53.7024 177.103 55.7711C179.938 58.6066 176.318 63.476 172.828 61.5197ZM176.357 59.7428C177.301 58.5417 177.265 57.6906 176.224 56.6497C175.204 55.6295 173.734 55.4573 174.135 56.4053C174.544 57.3729 174.385 58.2876 173.63 59.3089C172.865 60.3444 173.058 60.5815 174.708 60.6301C175.32 60.6482 175.883 60.3455 176.357 59.7429V59.7428ZM173.188 58.5052C173.711 57.9821 173.728 56.9562 173.219 56.6415C172.737 56.3439 172.228 57.1081 172.221 58.1408C172.216 59.0075 172.557 59.1363 173.188 58.5048L173.188 58.5052ZM189.92 59.6161C188.955 58.6511 189.025 57.0074 190.077 55.9555C191.131 54.9015 192.627 54.8491 193.865 55.8228C194.871 56.6149 195.136 58.2275 194.258 58.2275C193.972 58.2275 193.738 57.9971 193.738 57.715C193.738 57.433 193.358 56.9533 192.893 56.649C192.216 56.2054 191.898 56.1758 191.291 56.5014C190.616 56.8631 190.558 57.0927 190.759 58.6088C190.883 59.5449 190.901 60.3107 190.799 60.3107C190.697 60.3107 190.301 59.9983 189.919 59.6162L189.92 59.6161ZM164.337 59.6124C163.378 59.2262 162.497 57.5574 162.497 56.1279C162.497 55.3399 162.839 54.6929 163.722 53.8099C164.824 52.7075 165.087 52.6042 166.359 52.7747C167.909 52.983 169.439 54.1701 169.439 55.1645C169.439 56.0126 168.672 55.9697 168.123 55.0907C166.564 52.5944 162.694 54.6061 163.912 57.2793C164.535 58.6467 165.977 59.1147 167.361 58.399C168.866 57.6208 169.478 58.2211 168.202 59.2243C167.227 59.991 165.668 60.1477 164.337 59.6121V59.6124ZM135.213 57.7421C134.23 56.7594 134.033 56.3076 134.033 55.0423C134.033 53.4309 134.782 51.9799 135.615 51.9799C136.254 51.9799 136.245 52.3071 135.571 53.6597C134.907 54.9913 135.198 56.3338 136.061 55.9177C136.377 55.7651 137.379 55.652 138.286 55.6675C139.873 55.6928 139.934 55.6603 139.934 54.7053C139.934 54.1608 139.61 53.3911 139.213 52.9945C138.321 52.1025 138.559 51.0826 139.537 51.6059C140.568 52.1577 141.43 54.3085 141.199 55.7573C140.927 57.4701 139.293 58.9224 137.638 58.9224C136.686 58.9224 136.117 58.6454 135.214 57.7422L135.213 57.7421ZM139.172 56.87C139.27 56.5739 138.917 56.4797 138.002 56.5558C136.619 56.6715 135.985 57.3778 137.051 57.6144C137.873 57.7974 138.994 57.4036 139.172 56.8698V56.87ZM151.056 57.3768C150.333 56.5058 150.762 55.6245 151.91 55.6245C152.627 55.6245 152.978 55.8147 153.062 56.2485C153.2 56.9643 152.553 57.8807 151.91 57.8807C151.67 57.8807 151.286 57.6536 151.056 57.3764V57.3768ZM152.43 56.4718C152.43 56.2921 152.196 56.1453 151.91 56.1453C151.373 56.1453 151.22 56.5545 151.611 56.9456C151.888 57.2229 152.43 56.913 152.43 56.4716L152.43 56.4718ZM150.869 53.3717C150.574 52.4393 151.282 51.5677 152.226 51.7026C152.777 51.7847 152.951 52.0558 152.951 52.8475C152.951 53.7172 152.799 53.9065 152.026 53.9958C151.337 54.0779 151.042 53.9137 150.869 53.3718V53.3717ZM152.43 52.8182C152.43 52.2049 151.683 52.3123 151.469 52.956C151.393 53.1831 151.578 53.3685 151.881 53.3685C152.183 53.3685 152.43 53.1207 152.43 52.819L152.43 52.8182ZM126.074 51.759C125.021 50.4205 125.145 49.0934 126.423 48.0184C127.694 46.9488 128.798 46.8763 129.916 47.7895C130.573 48.3265 130.649 48.5463 130.301 48.9003C129.964 49.2431 129.775 49.2488 129.451 48.9256C129.222 48.6967 128.706 48.509 128.305 48.509C126.519 48.509 126.164 50.5574 127.785 51.5148C129.1 52.2913 129.108 52.6745 127.81 52.6745C127.126 52.6745 126.559 52.3762 126.074 51.7599L126.074 51.759ZM165.814 51.5547C163.868 48.7757 167.504 45.5068 169.968 47.8211C170.878 48.6759 171.104 49.5492 170.416 49.5492C170.19 49.5492 169.652 49.218 169.221 48.8129C168.669 48.2947 168.185 48.1397 167.588 48.2889C166.387 48.5898 166.189 49.4516 167.003 50.8305C167.864 52.2901 167.864 52.3263 167.029 52.3263C166.658 52.3263 166.111 51.9796 165.814 51.5547H165.814Z" fill="#003399"/>
</svg>
