<?xml version="1.0" encoding="UTF-8" standalone="no"?>
<svg
   xmlns:dc="http://purl.org/dc/elements/1.1/"
   xmlns:cc="http://creativecommons.org/ns#"
   xmlns:rdf="http://www.w3.org/1999/02/22-rdf-syntax-ns#"
   xmlns:svg="http://www.w3.org/2000/svg"
   xmlns="http://www.w3.org/2000/svg"
   xmlns:xlink="http://www.w3.org/1999/xlink"
   xmlns:sodipodi="http://sodipodi.sourceforge.net/DTD/sodipodi-0.dtd"
   xmlns:inkscape="http://www.inkscape.org/namespaces/inkscape"
   enable-background="new 0 0 24 24"
   height="24px"
   viewBox="0 0 24 24"
   width="24px"
   fill="#000000"
   version="1.1"
   id="svg6"
   sodipodi:docname="analyze.svg"
   inkscape:version="0.92.5 (2060ec1f9f, 2020-04-08)">
  <metadata
     id="metadata12">
    <rdf:RDF>
      <cc:Work
         rdf:about="">
        <dc:format>image/svg+xml</dc:format>
        <dc:type
           rdf:resource="http://purl.org/dc/dcmitype/StillImage" />
      </cc:Work>
    </rdf:RDF>
  </metadata>
  <defs
     id="defs10">
    <linearGradient
       inkscape:collect="always"
       id="linearGradient826">
      <stop
         style="stop-color:#374548;stop-opacity:1"
         offset="0"
         id="stop822" />
      <stop
         style="stop-color:#789399;stop-opacity:1"
         offset="1"
         id="stop824" />
    </linearGradient>
    <linearGradient
       inkscape:collect="always"
       xlink:href="#linearGradient826"
       id="linearGradient828"
       x1="20.40678"
       y1="1.3220339"
       x2="4.5"
       y2="24.610168"
       gradientUnits="userSpaceOnUse" />
  </defs>
  <sodipodi:namedview
     pagecolor="#ffffff"
     bordercolor="#666666"
     borderopacity="1"
     objecttolerance="10"
     gridtolerance="10"
     guidetolerance="10"
     inkscape:pageopacity="0"
     inkscape:pageshadow="2"
     inkscape:window-width="1920"
     inkscape:window-height="1043"
     id="namedview8"
     showgrid="false"
     inkscape:zoom="9.8333333"
     inkscape:cx="12"
     inkscape:cy="12"
     inkscape:window-x="0"
     inkscape:window-y="0"
     inkscape:window-maximized="1"
     inkscape:current-layer="svg6" />
  <rect
     fill="none"
     height="24"
     width="24"
     id="rect2" />
  <path
     d="M19.3,16.9c0.4-0.7,0.7-1.5,0.7-2.4c0-2.5-2-4.5-4.5-4.5S11,12,11,14.5s2,4.5,4.5,4.5c0.9,0,1.7-0.3,2.4-0.7l3.2,3.2 l1.4-1.4L19.3,16.9z M15.5,17c-1.4,0-2.5-1.1-2.5-2.5s1.1-2.5,2.5-2.5s2.5,1.1,2.5,2.5S16.9,17,15.5,17z M12,20v2 C6.48,22,2,17.52,2,12C2,6.48,6.48,2,12,2c4.84,0,8.87,3.44,9.8,8h-2.07c-0.64-2.46-2.4-4.47-4.73-5.41V5c0,1.1-0.9,2-2,2h-2v2 c0,0.55-0.45,1-1,1H8v2h2v3H9l-4.79-4.79C4.08,10.79,4,11.38,4,12C4,16.41,7.59,20,12,20z"
     id="path4"
     style="fill-opacity:1;fill:url(#linearGradient828)" />
</svg>
